<svg xmlns="http://www.w3.org/2000/svg" viewBox="0 0 48 48"><defs><style>.cls-1{fill:#42a5f5}.cls-2{fill:#424242}</style></defs><g id="API_Mobile" data-name="API Mobile"><path class="cls-1" d="M22 20h-2a1 1 0 0 0-1 1v8a1 1 0 0 0 2 0v-3h1a3 3 0 0 0 0-6zm0 4h-1v-2h1a1 1 0 0 1 0 2zM14.89 20.55a1 1 0 0 0-1.78 0l-2 4A1 1 0 0 0 11 25v4a1 1 0 0 0 2 0v-2h2v2a1 1 0 0 0 2 0v-4a1 1 0 0 0-.11-.45zM14 23.24l.88 1.76h-1.76zM30 28v-6a1 1 0 0 0 0-2h-2a1 1 0 0 0 0 2v6a1 1 0 0 0 0 2h2a1 1 0 0 0 0-2zM36 8H6a3 3 0 0 0-3 3v5h36v-5a3 3 0 0 0-3-3zM8 13a1 1 0 1 1 1-1 1 1 0 0 1-1 1zm4 0a1 1 0 1 1 1-1 1 1 0 0 1-1 1zm4 0a1 1 0 1 1 1-1 1 1 0 0 1-1 1zm18 0h-8a1 1 0 0 1 0-2h8a1 1 0 0 1 0 2zM25 0h12v2a2 2 0 0 1-2 2h-8a2 2 0 0 1-2-2V0z"/><path class="cls-2" d="M42 0h-3v2h3a1 1 0 0 1 1 1v35H19v-2h17a3 3 0 0 0 3-3V18h-2v15a1 1 0 0 1-1 1H6a1 1 0 0 1-1-1V18H3v15a3 3 0 0 0 3 3h11v9a3 3 0 0 0 3 3h22a3 3 0 0 0 3-3V3a3 3 0 0 0-3-3zm1 45a1 1 0 0 1-1 1H20a1 1 0 0 1-1-1v-5h24zM19 3a1 1 0 0 1 1-1h3V0h-3a3 3 0 0 0-3 3v3h2z"/><path class="cls-1" d="M33 44h-4a1 1 0 0 1 0-2h4a1 1 0 0 1 0 2z"/></g></svg>