<svg xmlns="http://www.w3.org/2000/svg" viewBox="0 0 64 64"><defs><style>.cls-1{fill:#dfe1ea}.cls-5{fill:#0096cf}.cls-6{fill:#fff}</style></defs><g id="_39-App_Development" data-name="39-App Development"><path class="cls-1" d="M52 4v56a3 3 0 0 1-3 3H15a3 3 0 0 1-3-3V4a3 3 0 0 1 3-3h34a3 3 0 0 1 3 3zm-4 54V7a.979.979 0 0 0-1-1h-8s-1 2-2 2H27c-1 0-2-2-2-2h-8a.979.979 0 0 0-1 1v51a.979.979 0 0 0 1 1h30a.979.979 0 0 0 1-1z"/><path d="M48 7v51a.979.979 0 0 1-1 1H17a.979.979 0 0 1-1-1V7a.979.979 0 0 1 1-1h8s1 2 2 2h10c1 0 2-2 2-2h8a.979.979 0 0 1 1 1z" style="fill:#8dd5f6"/><path d="M43.6 17c-7.6 0-7.6-2-15.2-2-6.528 0-7.465 1.47-12.4 1.888v7C20.935 23.47 21.872 22 28.394 22c7.6 0 7.6 2 15.2 2A28.636 28.636 0 0 0 48 23.7v-7a28.636 28.636 0 0 1-4.4.3z" style="fill:#aedff7"/><path d="M16 7v9.888C20.935 16.47 21.872 15 28.394 15c7.6 0 7.6 2 15.2 2A28.636 28.636 0 0 0 48 16.7V7a.979.979 0 0 0-1-1h-8s-1 2-2 2H27c-1 0-2-2-2-2h-8a.979.979 0 0 0-1 1z" style="fill:#f6fafd"/><rect class="cls-5" x="40" y="43" width="8" height="4" rx=".684" ry=".684"/><path class="cls-6" d="M38 29h20v14H38z"/><path style="fill:#7e8596" d="M38 21h20v8H38z"/><path class="cls-1" d="M41 32h14v8H41z"/><path style="fill:#adb2c7" d="M12 32h4v3h-4z"/><path class="cls-5" d="M16 32h22v3H16z"/><path class="cls-1" d="M30 28v8h-8l8-8z"/><path class="cls-6" d="m30 28-8 8v-8h8z"/><path class="cls-1" d="M6 36v-8h8l-8 8z"/><path class="cls-6" d="m6 36 8-8v8H6z"/><path class="cls-1" d="M14 12v8H6l8-8z"/><path class="cls-6" d="m14 12-8 8v-8h8z"/><path class="cls-1" d="M14 44v8H6l8-8z"/><path class="cls-6" d="m14 44-8 8v-8h8zM41 24h2v2h-2zM45 24h2v2h-2z"/><circle cx="26" cy="46" r="4" style="fill:#ff636e"/><path d="M29.6 21.19a.565.565 0 0 1-.51.81h-6.18a.565.565 0 0 1-.51-.81L25.5 15a.56.56 0 0 1 1 0z" style="fill:#73c6b2"/><path d="M58 20h-5V4a4 4 0 0 0-4-4H15a4 4 0 0 0-4 4v5h2V4a2 2 0 0 1 2-2h34a2 2 0 0 1 2 2v16h-2V7a1.959 1.959 0 0 0-2-2h-8a1 1 0 0 0-.894.551A4.184 4.184 0 0 1 37 7h-9.955a3.765 3.765 0 0 1-1.151-1.454A1 1 0 0 0 25 5h-8a1.959 1.959 0 0 0-2 2v2h2V7h7.412c.488.807 1.415 2 2.588 2h10c1.173 0 2.1-1.193 2.588-2H47v13h-9a1 1 0 0 0-1 1v10h-6v-3a1 1 0 0 0-1-1h-3v-4h2.09a1.565 1.565 0 0 0 1.4-2.258l-3.1-6.2a1.561 1.561 0 0 0-2.786.008l-3.1 6.2A1.565 1.565 0 0 0 22.91 23H25v4h-3a1 1 0 0 0-1 1v3h-6v-3a1 1 0 0 0-1-1h-3v-6h3a1 1 0 0 0 1-1v-8a1 1 0 0 0-1-1H6a1 1 0 0 0-1 1v8a1 1 0 0 0 1 1h3v6H6a1 1 0 0 0-1 1v8a1 1 0 0 0 1 1h3v6H6a1 1 0 0 0-1 1v8a1 1 0 0 0 1 1h8a1 1 0 0 0 1-1v-8a1 1 0 0 0-1-1h-3v-6h3a1 1 0 0 0 1-1v-3h6v3a1 1 0 0 0 1 1h3v4.1a5 5 0 1 0 2 0V37h3a1 1 0 0 0 1-1v-3h6v10a1 1 0 0 0 1 1h9v14H17v-3h-2v3a1.959 1.959 0 0 0 2 2h30a1.959 1.959 0 0 0 2-2V44h2v16a2 2 0 0 1-2 2H15a2 2 0 0 1-2-2v-5h-2v5a4 4 0 0 0 4 4h34a4 4 0 0 0 4-4V44h5a1 1 0 0 0 1-1V21a1 1 0 0 0-1-1zm-32-3.765L28.386 21h-4.772zM7 13h6v6H7zm6 38H7v-6h6zm-1.414-22L7 33.586V29zm-3.172 6L13 30.414V35zM29 46a3 3 0 1 1-3-3 3 3 0 0 1 3 3zm-1.414-17L23 33.586V29zm-3.172 6L29 30.414V35zM57 22v6H39v-6zM39 42V30h18v12z"/><path d="m45.293 32.293-3 3a1 1 0 0 0 0 1.414l3 3 1.414-1.414L44.414 36l2.293-2.293zM50.707 32.293l-1.414 1.414L51.586 36l-2.293 2.293 1.414 1.414 3-3a1 1 0 0 0 0-1.414z"/></g></svg>