<svg version="1.0" xmlns="http://www.w3.org/2000/svg" width="100" height="100" xml:space="preserve"><path fill="#E9EAEF" stroke="#335C5F" stroke-width="1.5" stroke-linecap="round" stroke-linejoin="round" stroke-miterlimit="10" d="M10 10v9.413h7.059l1.825-3.654c.292-.579 1.057-1.052 1.702-1.052h11.767c.645 0 1.415.474 1.702 1.052l1.826 3.654H90V10H10z"/><path fill="#FADF7E" stroke="#335C5F" stroke-width="1.5" stroke-linecap="round" stroke-linejoin="round" stroke-miterlimit="10" d="M35.877 19.413h.003l-1.826-3.654c-.288-.579-1.057-1.052-1.702-1.052H20.586c-.645 0-1.41.474-1.702 1.052l-1.825 3.654h.003H10V90h80V19.413H35.877z"/><path fill="#CACCD1" d="M86.471 10H90v9.413h-3.529z"/><path fill="#D8C26F" d="M86.471 19.413H90V90h-3.529z"/><path fill="#D7DAE7" stroke="#335C5F" stroke-width="1.5" stroke-linecap="round" stroke-linejoin="round" stroke-miterlimit="10" d="M10 26.471h7.059v7.059H10z"/><path fill="#9DD1D9" stroke="#335C5F" stroke-width="1.5" stroke-linecap="round" stroke-linejoin="round" stroke-miterlimit="10" d="M21.764 28.235h9.413v3.529h-9.413zM35.881 28.235h18.823v3.529H35.881zM31.176 35.294h28.236v3.529H31.176zM64.119 35.294h14.118v3.529H64.119zM31.176 42.353h4.705v3.529h-4.705zM40.589 42.353h23.526v3.529H40.589zM68.823 42.353h14.118v3.529H68.823zM31.176 49.412h18.822v3.529H31.176zM54.706 49.412h23.527v3.529H54.706zM21.764 56.471h9.413V60h-9.413zM35.881 56.471h18.825V60H35.881zM59.412 56.471h4.703V60h-4.703zM26.471 63.529h47.058v3.529H26.471zM26.471 70.588h9.413v3.529h-9.413zM40.591 70.588h37.646v3.529H40.591zM35.881 77.646h37.648v3.529H35.881zM78.233 77.646h4.704v3.529h-4.704z"/><path fill="#D7DAE7" stroke="#335C5F" stroke-width="1.5" stroke-linecap="round" stroke-linejoin="round" stroke-miterlimit="10" d="M10 33.53h7.059v7.059H10zM10 40.589h7.059v7.059H10z"/><path fill="#D7DAE7" stroke="#335C5F" stroke-width="1.5" stroke-linecap="round" stroke-linejoin="round" stroke-miterlimit="10" d="M10 47.647h7.059v7.059H10zM10 54.706h7.059v7.059H10zM10 61.765h7.059v7.059H10z"/><path fill="#D7DAE7" stroke="#335C5F" stroke-width="1.5" stroke-linecap="round" stroke-linejoin="round" stroke-miterlimit="10" d="M10 68.823h7.059v7.059H10zM10 75.882h7.059v7.06H10z"/><path fill="#D7DAE7" stroke="#335C5F" stroke-width="1.5" stroke-linecap="round" stroke-linejoin="round" stroke-miterlimit="10" d="M10 82.941h7.059V90H10z"/><path fill="#FADF7E" stroke="#335C5F" stroke-width="1.5" stroke-linecap="round" stroke-linejoin="round" stroke-miterlimit="10" d="M83.527 12.941h3.531v3.531h-3.531zM77.646 12.941h3.531v3.531h-3.531zM71.765 12.941h3.531v3.531h-3.531z"/><path fill="#70929F" stroke="#335C5F" stroke-width="1.5" stroke-linecap="round" stroke-linejoin="round" stroke-miterlimit="10" d="M45.818 15.758c-.289-.579-1.053-1.052-1.702-1.052H32.353c.645 0 1.415.474 1.702 1.052l1.826 3.654h11.763l-1.826-3.654z"/><path fill="#62818C" d="M35.883 14.706h-3.53c.645 0 1.415.474 1.702 1.052l1.826 3.654h3.529l-1.826-3.654c-.288-.578-1.056-1.052-1.701-1.052z"/><path fill="#89B7BF" d="M28.823 28.235h2.353v3.529h-2.353zM28.823 56.471h2.353V60h-2.353zM33.531 70.588h2.353v3.529h-2.353zM71.177 77.646h2.353v3.529h-2.353zM80.584 77.646h2.354v3.529h-2.354zM75.884 70.588h2.354v3.529h-2.354zM71.177 63.529h2.353v3.529h-2.353zM52.353 56.471h2.354V60h-2.354zM61.763 56.471h2.353V60h-2.353zM33.527 42.353h2.354v3.529h-2.354zM47.646 49.412h2.353v3.529h-2.353zM75.88 49.412h2.354v3.529H75.88zM61.763 42.353h2.353v3.529h-2.353zM80.588 42.353h2.354v3.529h-2.354zM57.059 35.294h2.354v3.529h-2.354zM75.884 35.294h2.354v3.529h-2.354zM52.352 28.235h2.353v3.529h-2.353z"/><path fill="none" stroke="#335C5F" stroke-width="1.5" stroke-linecap="round" stroke-linejoin="round" stroke-miterlimit="10" d="M10 10v9.413h7.059l1.825-3.654c.292-.579 1.057-1.052 1.702-1.052h11.767c.645 0 1.415.474 1.702 1.052l1.826 3.654H90V10H10z"/><path fill="none" stroke="#335C5F" stroke-width="1.5" stroke-linecap="round" stroke-linejoin="round" stroke-miterlimit="10" d="M45.818 15.758c-.289-.579-1.053-1.052-1.702-1.052H32.353c.645 0 1.415.474 1.702 1.052l1.826 3.654h11.763l-1.826-3.654z"/><path fill="none" stroke="#335C5F" stroke-width="1.5" stroke-linecap="round" stroke-linejoin="round" stroke-miterlimit="10" d="M35.877 19.413h.003l-1.826-3.654c-.288-.579-1.057-1.052-1.702-1.052H20.586c-.645 0-1.41.474-1.702 1.052l-1.825 3.654h.003H10V90h80V19.413H35.877z"/><path fill="none" stroke="#335C5F" stroke-width="1.5" stroke-linecap="round" stroke-linejoin="round" stroke-miterlimit="10" d="M21.764 28.235h9.413v3.529h-9.413zM35.881 28.235h18.823v3.529H35.881zM31.176 35.294h28.236v3.529H31.176zM64.119 35.294h14.118v3.529H64.119zM31.176 42.353h4.705v3.529h-4.705zM40.589 42.353h23.526v3.529H40.589zM68.823 42.353h14.118v3.529H68.823zM31.176 49.412h18.822v3.529H31.176zM54.706 49.412h23.527v3.529H54.706zM21.764 56.471h9.413V60h-9.413zM35.881 56.471h18.825V60H35.881zM59.412 56.471h4.703V60h-4.703zM26.471 63.529h47.058v3.529H26.471zM26.471 70.588h9.413v3.529h-9.413zM40.591 70.588h37.646v3.529H40.591zM35.881 77.646h37.648v3.529H35.881zM78.233 77.646h4.704v3.529h-4.704z"/></svg>