<svg version="1.1" id="Layer_1" xmlns="http://www.w3.org/2000/svg" x="0" y="0" viewBox="0 0 256 256" style="enable-background:new 0 0 256 256" xml:space="preserve"><style>.st1{fill:#291b4a}.st2{fill:#ed9abc}.st3{fill:#e54890}.st4{fill:#d3d3d3}.st5{fill:#ebe7f2}.st8{fill:#65c1d6}.st9{fill:#149cb2}</style><circle transform="rotate(-45.001 128 128.002)" cx="128" cy="128" style="fill:#382b73" r="119.4"/><path class="st1" d="M103.642 184.345c-1.338 0-2.65.215-3.896.632a17.675 17.675 0 0 0-16.635-11.594c-9.477 0-17.241 7.466-17.72 16.825-4.618 1.818-7.793 6.339-7.793 11.436 0 6.774 5.511 12.285 12.285 12.285H192.937a5.446 5.446 0 0 0 4.567-2.466 5.445 5.445 0 0 0 .444-5.17l-21.637-49.886a5.434 5.434 0 0 0 4.261-5.298v-4.883a5.434 5.434 0 0 0-4.261-5.298l2.259-5.207a5.45 5.45 0 0 0-.446-5.171 5.446 5.446 0 0 0-4.565-2.464h-2.119V42.224c0-4.242-3.451-7.693-7.692-7.693h-.354c-4.241 0-7.692 3.451-7.692 7.693v85.863h-2.119a5.446 5.446 0 0 0-4.567 2.466 5.445 5.445 0 0 0-.444 5.17l2.258 5.207a5.434 5.434 0 0 0-4.26 5.297v4.883a5.433 5.433 0 0 0 4.26 5.297l-21.636 49.886a5.466 5.466 0 0 0-.433 2.636H69.883c-4.017 0-7.285-3.268-7.285-7.285 0-3.447 2.446-6.448 5.816-7.137a2.498 2.498 0 0 0 1.995-2.599l-.017-.259c-.012-.174-.025-.347-.025-.524 0-7.026 5.717-12.743 12.743-12.743a12.693 12.693 0 0 1 12.544 10.591 2.5 2.5 0 0 0 3.878 1.643 7.243 7.243 0 0 1 4.109-1.272c4.017 0 7.284 3.268 7.284 7.285a7.24 7.24 0 0 1-.597 2.887 2.498 2.498 0 0 0 2.266 3.491l10.354 3.301a2.5 2.5 0 0 0 1.52-4.764l-8.729-2.782c.124-.7.186-1.412.186-2.133.001-6.773-5.51-12.284-12.283-12.284zm57.059-142.121a2.696 2.696 0 0 1 2.692-2.693h.354a2.696 2.696 0 0 1 2.692 2.693v85.863h-5.738V42.224zm-7.506 91.071a.438.438 0 0 1 .387-.209h19.977c.165 0 .295.07.386.208a.436.436 0 0 1 .038.438l-3.065 7.067h-14.694l-3.064-7.066h-.001a.436.436 0 0 1 .036-.438zm-1.627 12.932c0-.235.191-.427.428-.427h23.148c.236 0 .428.192.428.427v4.883a.428.428 0 0 1-.428.427h-23.148a.428.428 0 0 1-.428-.427v-4.883zm-17.788 62.056 22.442-51.746h14.694l22.444 51.747a.44.44 0 0 1-.038.437.438.438 0 0 1-.387.209h-10.627l-8.51-35.818a2.5 2.5 0 0 0-4.865 1.156l8.235 34.662H166.07v-20.937a2.5 2.5 0 1 0-5 0v20.937h-11.099l8.235-34.662a2.5 2.5 0 1 0-4.865-1.156l-8.509 35.817h-10.628a.44.44 0 0 1-.387-.208.44.44 0 0 1-.037-.438z"/><path class="st1" d="M79.869 190.15a3.171 3.171 0 0 1 3.168-3.168 3.152 3.152 0 0 1 3.116 2.631 2.496 2.496 0 0 0 2.885 2.045 2.5 2.5 0 0 0 2.045-2.884 8.141 8.141 0 0 0-8.046-6.792c-4.504 0-8.168 3.665-8.168 8.168a2.5 2.5 0 1 0 5 0zM119.299 165.184a2.5 2.5 0 0 0 2.5-2.5V58.018a2.5 2.5 0 0 0-2.5-2.5H66.19a2.5 2.5 0 0 0-2.5 2.5v104.666a2.5 2.5 0 0 0 2.5 2.5h53.109zM68.69 60.518h48.108v99.666H68.69V60.518z"/><path class="st1" d="M107.397 74.715a2.5 2.5 0 1 0 0-5H78.092a2.5 2.5 0 1 0 0 5h29.305zM107.397 86.62a2.5 2.5 0 1 0 0-5H78.092a2.5 2.5 0 1 0 0 5h29.305zM107.397 98.525a2.5 2.5 0 1 0 0-5H78.092a2.5 2.5 0 1 0 0 5h29.305zM102.625 140.977c0-5.448-4.433-9.881-9.881-9.881s-9.88 4.433-9.88 9.881 4.432 9.881 9.88 9.881 9.881-4.433 9.881-9.881zm-14.761 0a4.886 4.886 0 0 1 4.88-4.881c2.691 0 4.881 2.189 4.881 4.881s-2.189 4.881-4.881 4.881a4.887 4.887 0 0 1-4.88-4.881zM100.125 123.234a2.5 2.5 0 1 0 0-5H85.364a2.5 2.5 0 1 0 0 5h14.761z"/><g><path class="st4" d="M166.07 207.43v-23.437a2.5 2.5 0 1 0-5 0v23.437a2.5 2.5 0 1 0 5 0z"/><path class="st5" d="M166.07 207.43v-23.437a2.5 2.5 0 1 0-5 0v23.437a2.5 2.5 0 1 0 5 0zm-3.5 0v-23.437c0-.551.449-1 1-1s1 .449 1 1v23.437c0 .551-.449 1-1 1s-1-.449-1-1z"/><path class="st4" d="M146.81 209.93a2.502 2.502 0 0 0 2.431-1.923l8.966-37.74a2.5 2.5 0 1 0-4.865-1.156l-8.966 37.74a2.502 2.502 0 0 0 2.434 3.079z"/><path class="st5" d="M146.81 209.93a2.502 2.502 0 0 0 2.431-1.923l8.966-37.74a2.502 2.502 0 0 0-2.435-3.079 2.502 2.502 0 0 0-2.43 1.923l-8.966 37.74a2.502 2.502 0 0 0 2.434 3.079zm-.976-2.731 8.966-37.74a.996.996 0 0 1 1.204-.742c.536.127.869.668.742 1.204l-8.966 37.739a.997.997 0 0 1-1.205.742 1.001 1.001 0 0 1-.741-1.203z"/><path class="st4" d="M180.331 209.93a2.5 2.5 0 0 0 2.434-3.078l-8.967-37.74a2.5 2.5 0 0 0-4.865 1.156l8.967 37.74a2.502 2.502 0 0 0 2.431 1.922z"/><path class="st5" d="M180.331 209.93a2.5 2.5 0 0 0 2.434-3.078l-8.967-37.74a2.5 2.5 0 0 0-4.865 1.156l8.967 37.74a2.502 2.502 0 0 0 2.431 1.922zm-9.196-41.213a.996.996 0 0 1 1.204.741l8.967 37.739a1.002 1.002 0 0 1-.975 1.232.996.996 0 0 1-.971-.769l-8.967-37.739a1.002 1.002 0 0 1 .742-1.204z"/><g><path class="st8" d="M168.939 129.086a2.5 2.5 0 0 0 2.5-2.5V38.223c0-4.242-3.451-7.692-7.692-7.692h-.354c-4.241 0-7.692 3.451-7.692 7.692v88.363a2.5 2.5 0 1 0 5 0V38.223a2.696 2.696 0 0 1 2.692-2.692h.354a2.696 2.696 0 0 1 2.692 2.692v88.363a2.5 2.5 0 0 0 2.5 2.5zM134.204 209.93h58.732a5.446 5.446 0 0 0 4.567-2.466 5.445 5.445 0 0 0 .444-5.17l-23.097-53.251a2.5 2.5 0 0 0-2.294-1.505H154.58c-.996 0-1.897.591-2.294 1.505l-23.096 53.251a5.452 5.452 0 0 0 .444 5.171 5.457 5.457 0 0 0 4.57 2.465zm-.424-5.647 22.442-51.746h14.694l22.444 51.747a.44.44 0 0 1-.038.437.438.438 0 0 1-.387.209h-58.732a.44.44 0 0 1-.387-.208.445.445 0 0 1-.036-.439z"/><path class="st8" d="M175.145 152.537a5.434 5.434 0 0 0 5.428-5.427v-4.883a5.433 5.433 0 0 0-5.428-5.427h-23.148a5.434 5.434 0 0 0-5.428 5.427v4.883a5.433 5.433 0 0 0 5.428 5.427h23.148zm-23.577-5.427v-4.883c0-.235.191-.427.428-.427h23.148c.236 0 .428.192.428.427v4.883a.428.428 0 0 1-.428.427h-23.148a.428.428 0 0 1-.428-.427z"/><path class="st8" d="M154.582 141.799h17.976c.996 0 1.897-.591 2.294-1.505l3.719-8.573a5.45 5.45 0 0 0-.446-5.171 5.446 5.446 0 0 0-4.565-2.464h-19.977a5.446 5.446 0 0 0-4.567 2.466 5.445 5.445 0 0 0-.444 5.17l3.718 8.572a2.496 2.496 0 0 0 2.292 1.505zm-1.387-12.504a.438.438 0 0 1 .387-.209h19.977c.165 0 .295.07.386.208a.436.436 0 0 1 .038.438l-3.065 7.067h-14.694l-3.064-7.066h-.001a.436.436 0 0 1 .036-.438z"/><path class="st4" d="M79.869 186.15a3.171 3.171 0 0 1 3.168-3.168 3.152 3.152 0 0 1 3.116 2.631 2.5 2.5 0 0 0 4.93-.839 8.141 8.141 0 0 0-8.046-6.792c-4.504 0-8.168 3.665-8.168 8.168a2.5 2.5 0 1 0 5 0z"/><path class="st5" d="M79.869 186.15a3.171 3.171 0 0 1 3.168-3.168 3.152 3.152 0 0 1 3.116 2.631 2.498 2.498 0 0 0 2.885 2.045 2.5 2.5 0 0 0 2.045-2.884 8.141 8.141 0 0 0-8.046-6.792c-4.504 0-8.168 3.665-8.168 8.168a2.5 2.5 0 1 0 5 0zm-3.5 0a6.675 6.675 0 0 1 6.668-6.668 6.646 6.646 0 0 1 6.567 5.544 1.002 1.002 0 0 1-.992 1.169.995.995 0 0 1-.98-.832 4.649 4.649 0 0 0-4.595-3.88 4.673 4.673 0 0 0-4.668 4.668c0 .551-.449 1-1 1s-1-.449-1-1.001z"/><path class="st8" d="M103.642 180.345c-1.338 0-2.65.215-3.896.632a17.675 17.675 0 0 0-16.635-11.594c-9.477 0-17.241 7.466-17.72 16.825-4.618 1.818-7.793 6.339-7.793 11.436 0 6.774 5.511 12.285 12.285 12.285h67.879a2.5 2.5 0 1 0 0-5H69.883c-4.017 0-7.285-3.268-7.285-7.285 0-3.447 2.446-6.448 5.816-7.137a2.498 2.498 0 0 0 1.995-2.599l-.017-.259c-.012-.174-.025-.347-.025-.524 0-7.026 5.717-12.743 12.743-12.743a12.693 12.693 0 0 1 12.544 10.591 2.502 2.502 0 0 0 3.878 1.643 7.243 7.243 0 0 1 4.109-1.272c4.017 0 7.284 3.268 7.284 7.285a7.24 7.24 0 0 1-.597 2.887 2.498 2.498 0 0 0 2.266 3.491l10.354 3.301a2.5 2.5 0 0 0 1.52-4.764l-8.729-2.782c.124-.7.186-1.412.186-2.133.001-6.773-5.51-12.284-12.283-12.284z"/></g><g><path class="st2" d="M119.299 161.184a2.5 2.5 0 0 0 2.5-2.5V54.018a2.5 2.5 0 0 0-2.5-2.5H66.19a2.5 2.5 0 0 0-2.5 2.5v104.666a2.5 2.5 0 0 0 2.5 2.5h53.109zM68.69 56.518h48.108v99.666H68.69V56.518z"/><path class="st2" d="M107.397 70.715a2.5 2.5 0 1 0 0-5H78.092a2.5 2.5 0 1 0 0 5h29.305zM107.397 82.62a2.5 2.5 0 1 0 0-5H78.092a2.5 2.5 0 1 0 0 5h29.305zM107.397 94.525a2.5 2.5 0 1 0 0-5H78.092a2.5 2.5 0 1 0 0 5h29.305z"/><path class="st4" d="M102.625 136.977c0-5.448-4.433-9.881-9.881-9.881s-9.88 4.433-9.88 9.881 4.432 9.881 9.88 9.881 9.881-4.433 9.881-9.881zm-14.761 0a4.886 4.886 0 0 1 4.88-4.881c2.691 0 4.881 2.189 4.881 4.881s-2.189 4.881-4.881 4.881a4.887 4.887 0 0 1-4.88-4.881z"/><path class="st5" d="M102.625 136.977c0-5.448-4.433-9.881-9.881-9.881s-9.88 4.433-9.88 9.881 4.432 9.881 9.88 9.881 9.881-4.433 9.881-9.881zm-18.261 0c0-4.621 3.759-8.381 8.38-8.381s8.381 3.76 8.381 8.381-3.76 8.381-8.381 8.381c-4.621-.001-8.38-3.76-8.38-8.381z"/><path class="st5" d="M99.125 136.977a6.388 6.388 0 0 0-6.381-6.381c-3.518 0-6.38 2.862-6.38 6.381s2.862 6.381 6.38 6.381a6.389 6.389 0 0 0 6.381-6.381zm-11.261 0a4.886 4.886 0 0 1 4.88-4.881c2.691 0 4.881 2.189 4.881 4.881s-2.189 4.881-4.881 4.881a4.887 4.887 0 0 1-4.88-4.881z"/><path class="st2" d="M100.125 119.234a2.5 2.5 0 1 0 0-5H85.364a2.5 2.5 0 1 0 0 5h14.761z"/><g><path class="st3" d="M119.299 161.184a2.5 2.5 0 0 0 2.5-2.5V54.018a2.5 2.5 0 0 0-2.5-2.5H66.19a2.5 2.5 0 0 0-2.5 2.5v104.666a2.5 2.5 0 0 0 2.5 2.5h53.109zm-54.109-2.5V54.018c0-.551.449-1 1-1h53.108c.551 0 1 .449 1 1v104.666c0 .551-.449 1-1 1H66.19c-.551 0-1-.449-1-1z"/><path class="st3" d="M68.69 157.684h48.108a1.5 1.5 0 0 0 1.5-1.5V56.518a1.5 1.5 0 0 0-1.5-1.5H68.69a1.5 1.5 0 0 0-1.5 1.5v99.666a1.5 1.5 0 0 0 1.5 1.5zm0-101.166h48.108v99.666H68.69V56.518z"/><path class="st3" d="M107.397 70.715a2.5 2.5 0 1 0 0-5H78.092a2.5 2.5 0 1 0 0 5h29.305zm-30.305-2.5c0-.551.449-1 1-1h29.306c.551 0 1 .449 1 1s-.449 1-1 1H78.092c-.552 0-1-.449-1-1zM107.397 82.62a2.5 2.5 0 1 0 0-5H78.092a2.5 2.5 0 1 0 0 5h29.305zm-30.305-2.5c0-.551.449-1 1-1h29.306c.551 0 1 .449 1 1s-.449 1-1 1H78.092a1 1 0 0 1-1-1zM107.397 94.525a2.5 2.5 0 1 0 0-5H78.092a2.5 2.5 0 1 0 0 5h29.305zm-30.305-2.5c0-.551.449-1 1-1h29.306c.551 0 1 .449 1 1s-.449 1-1 1H78.092a1 1 0 0 1-1-1z"/><g><path class="st3" d="M100.125 119.234a2.5 2.5 0 1 0 0-5H85.364a2.5 2.5 0 1 0 0 5h14.761zm-15.761-2.5c0-.551.449-1 1-1h14.761c.551 0 1 .449 1 1s-.449 1-1 1H85.364c-.551 0-1-.449-1-1z"/></g></g></g><g><path class="st9" d="M160.701 125.586h5.738a1.5 1.5 0 0 0 1.5-1.5V38.223a4.197 4.197 0 0 0-4.192-4.192h-.354a4.197 4.197 0 0 0-4.192 4.192v85.863a1.5 1.5 0 0 0 1.5 1.5zm0-87.363a2.696 2.696 0 0 1 2.692-2.692h.354a2.696 2.696 0 0 1 2.692 2.692v85.863h-5.738V38.223z"/><path class="st9" d="M103.642 180.345c-1.338 0-2.65.215-3.896.632a17.675 17.675 0 0 0-16.635-11.594c-9.477 0-17.241 7.466-17.72 16.825-4.618 1.818-7.793 6.339-7.793 11.436 0 6.774 5.511 12.285 12.285 12.285h123.054a5.446 5.446 0 0 0 4.567-2.466 5.445 5.445 0 0 0 .444-5.17l-21.637-49.886a5.434 5.434 0 0 0 4.261-5.298v-4.883a5.434 5.434 0 0 0-4.261-5.298l2.259-5.207a5.45 5.45 0 0 0-.446-5.171 5.446 5.446 0 0 0-4.565-2.464h-2.119V38.223c0-4.242-3.451-7.692-7.692-7.692h-.354c-4.241 0-7.692 3.451-7.692 7.692v85.863h-2.119a5.446 5.446 0 0 0-4.567 2.466 5.445 5.445 0 0 0-.444 5.17l2.258 5.207a5.434 5.434 0 0 0-4.26 5.297v4.883a5.433 5.433 0 0 0 4.26 5.297l-21.636 49.886a5.466 5.466 0 0 0-.433 2.636H69.883c-4.017 0-7.285-3.268-7.285-7.285 0-3.447 2.446-6.448 5.816-7.137a2.498 2.498 0 0 0 1.995-2.599l-.017-.259c-.012-.174-.025-.347-.025-.524 0-7.026 5.717-12.743 12.743-12.743a12.693 12.693 0 0 1 12.544 10.591 2.504 2.504 0 0 0 2.464 2.08c.497 0 .99-.148 1.414-.437a7.243 7.243 0 0 1 4.109-1.272c4.017 0 7.284 3.268 7.284 7.285a7.24 7.24 0 0 1-.597 2.887 2.498 2.498 0 0 0 2.266 3.491l10.354 3.301a2.502 2.502 0 0 0 3.142-1.623 2.5 2.5 0 0 0-1.622-3.141l-8.729-2.782c.124-.7.186-1.412.186-2.133.001-6.772-5.51-12.283-12.283-12.283zm20.371 18.629a1.001 1.001 0 0 1-.608 1.906l-10.354-3.301a1.515 1.515 0 0 0-.438-.071.998.998 0 0 1-.906-1.397 8.747 8.747 0 0 0 .719-3.481c0-4.844-3.941-8.785-8.784-8.785a8.738 8.738 0 0 0-4.956 1.534 1 1 0 0 1-1.553-.656 14.19 14.19 0 0 0-14.023-11.839c-7.854 0-14.243 6.389-14.243 14.243 0 .19.012.376.025.563l.004.057.016.253c.03.493-.313.939-.798 1.038-4.065.831-7.016 4.451-7.016 8.607 0 4.844 3.941 8.785 8.785 8.785h58.876a1.501 1.501 0 0 0 1.495-1.627 3.982 3.982 0 0 1 .315-1.913l21.636-49.886a1.498 1.498 0 0 0-1.053-2.061 3.95 3.95 0 0 1-3.083-3.833v-4.883a3.952 3.952 0 0 1 3.083-3.833 1.498 1.498 0 0 0 1.053-2.061l-2.258-5.207a3.951 3.951 0 0 1 .322-3.75 3.952 3.952 0 0 1 3.313-1.789h2.119a1.5 1.5 0 0 0 1.5-1.5V38.223a6.2 6.2 0 0 1 6.192-6.192h.354a6.2 6.2 0 0 1 6.192 6.192v85.863a1.5 1.5 0 0 0 1.5 1.5h2.119a3.95 3.95 0 0 1 3.312 1.788 3.954 3.954 0 0 1 .324 3.751l-2.259 5.207a1.5 1.5 0 0 0 1.053 2.061 3.949 3.949 0 0 1 3.083 3.833v4.883a3.95 3.95 0 0 1-3.084 3.833 1.498 1.498 0 0 0-1.053 2.061l21.637 49.886a3.952 3.952 0 0 1-.322 3.75 3.952 3.952 0 0 1-3.313 1.789H69.883c-5.947 0-10.785-4.838-10.785-10.785 0-4.394 2.75-8.429 6.843-10.04.548-.216.918-.731.948-1.319.442-8.636 7.567-15.402 16.222-15.402 6.783 0 12.902 4.264 15.226 10.61a1.5 1.5 0 0 0 1.885.906 10.747 10.747 0 0 1 3.42-.555c5.946 0 10.784 4.838 10.784 10.785 0 .633-.055 1.262-.163 1.871a1.5 1.5 0 0 0 1.021 1.691l8.729 2.784z"/><path class="st9" d="M134.204 206.43h58.732c.674 0 1.272-.323 1.64-.885.37-.562.428-1.239.161-1.858l-22.444-51.747a1.5 1.5 0 0 0-1.376-.903h-14.694a1.5 1.5 0 0 0-1.376.903l-22.441 51.744a1.931 1.931 0 0 0 .159 1.861 1.93 1.93 0 0 0 1.639.885zm-.424-2.147 22.442-51.746h14.694l22.444 51.747a.44.44 0 0 1-.038.437.438.438 0 0 1-.387.209h-58.732a.44.44 0 0 1-.387-.208.445.445 0 0 1-.036-.439zM177.072 147.11v-4.883a1.93 1.93 0 0 0-1.928-1.927h-23.148a1.93 1.93 0 0 0-1.928 1.927v4.883a1.93 1.93 0 0 0 1.928 1.927h23.148a1.929 1.929 0 0 0 1.928-1.927zm-25.504 0v-4.883c0-.235.191-.427.428-.427h23.148c.236 0 .428.192.428.427v4.883a.428.428 0 0 1-.428.427h-23.148a.428.428 0 0 1-.428-.427zM156.223 138.299h14.694a1.5 1.5 0 0 0 1.376-.903l3.063-7.061a1.925 1.925 0 0 0-.158-1.864 1.931 1.931 0 0 0-1.639-.884h-19.977c-.674 0-1.272.323-1.64.885a1.932 1.932 0 0 0-.141 1.9l3.046 7.024c.237.548.778.903 1.376.903zm-3.066-8.567a.44.44 0 0 1 .038-.437.438.438 0 0 1 .387-.209h19.977c.165 0 .295.07.386.208a.436.436 0 0 1 .038.438l-3.065 7.067h-14.694l-3.067-7.067c.001.001.001 0 0 0z"/></g></g></svg>