<svg xmlns="http://www.w3.org/2000/svg" viewBox="0 0 1000 1000" xml:space="preserve"><switch><g><path fill="#122436" d="M500 830.5c-3.4 0-6.9-.1-10.3-.2l.7-20c6.3.2 12.7.2 19 0l.7 20c-3.4.1-6.8.2-10.1.2zm30.4-1.5-2-19.9c6.3-.6 12.6-1.5 18.8-2.5l3.3 19.7c-6.6 1.1-13.4 2-20.1 2.7zm-60.9 0c-6.7-.7-13.5-1.6-20.2-2.7l3.3-19.7c6.2 1.1 12.5 1.9 18.8 2.5l-1.9 19.9zm101-6.8-4.7-19.4c6.1-1.5 12.3-3.2 18.3-5.1l6 19.1c-6.5 2-13.1 3.8-19.6 5.4zm-141.1 0c-6.6-1.6-13.2-3.4-19.6-5.4l6-19.1c6 1.9 12.2 3.6 18.3 5.1l-4.7 19.4zm179.9-12.1-7.3-18.6c5.9-2.3 11.7-4.8 17.5-7.5l8.5 18c-6.1 2.9-12.4 5.6-18.7 8.1zm-218.7-.1c-6.3-2.5-12.6-5.2-18.7-8l8.5-18.1c5.7 2.7 11.6 5.2 17.4 7.5l-7.2 18.6zm255.5-17.2-9.7-17.5c5.5-3.1 11-6.3 16.3-9.8l10.9 16.8c-5.7 3.7-11.6 7.2-17.5 10.5zm-292.3-.1c-5.9-3.3-11.8-6.8-17.4-10.5l10.9-16.8c5.3 3.4 10.8 6.7 16.3 9.8l-9.8 17.5zm326.5-22-12-16c5-3.8 10-7.8 14.8-11.9l13 15.2c-5.1 4.3-10.4 8.6-15.8 12.7zm-360.6-.1c-5.4-4-10.7-8.3-15.9-12.7l13-15.2c4.8 4.1 9.8 8.1 14.8 11.9l-11.9 16zm391.4-26.4-14-14.3c4.5-4.4 8.9-9 13.1-13.8l14.9 13.3c-4.4 5.1-9.2 10-14 14.8zm-422.3-.1c-4.8-4.7-9.5-9.7-14-14.7l14.9-13.3c4.2 4.7 8.6 9.3 13.1 13.8l-14 14.2zm449.4-30.3-15.8-12.3c3.9-5 7.6-10.2 11.1-15.4l16.6 11.2c-3.8 5.6-7.8 11.2-11.9 16.5zm-476.4-.1c-4.1-5.3-8.2-10.9-11.9-16.5l16.6-11.2c3.5 5.2 7.3 10.4 11.1 15.4l-15.8 12.3zm499.1-33.6-17.3-10c3.2-5.5 6.2-11.1 9-16.7l17.9 8.8c-3 6-6.2 12-9.6 17.9zm-521.8-.1c-3.4-5.9-6.6-11.9-9.6-17.9l17.9-8.8c2.8 5.7 5.8 11.3 9 16.8l-17.3 9.9zm539.7-36.4-18.5-7.6c2.4-5.8 4.6-11.8 6.6-17.8l19 6.3c-2.1 6.5-4.5 12.9-7.1 19.1zm-557.7-.1c-2.6-6.2-4.9-12.7-7.1-19.1l19-6.3c2 6 4.2 12 6.6 17.8l-18.5 7.6zM501 889l-.1-20c6.4 0 13-.2 19.4-.6l1.2 20c-6.8.3-13.7.5-20.5.6zm-20.6-.6c-6.8-.4-13.7-.9-20.5-1.7l2.2-19.9c6.4.7 12.9 1.2 19.3 1.6l-1 20zm61.6-1.9-2.3-19.9c6.4-.7 12.9-1.7 19.2-2.8l3.4 19.7c-6.7 1.2-13.6 2.2-20.3 3zm-102.4-2.6c-6.7-1.1-13.5-2.5-20.2-4l4.5-19.5c6.3 1.4 12.7 2.7 19 3.8l-3.3 19.7zm142.8-4.5-4.6-19.5c6.3-1.5 12.6-3.1 18.8-5l5.7 19.2c-6.6 2-13.2 3.8-19.9 5.3zm-182.9-4.7c-6.6-1.9-13.1-4-19.6-6.3l6.7-18.8c6.1 2.2 12.3 4.2 18.5 6l-5.6 19.1zm222.3-6.9L615 849c6.1-2.2 12.1-4.6 18.1-7.1l7.8 18.4c-6.3 2.7-12.7 5.2-19.1 7.5zm-261-6.8c-6.3-2.6-12.6-5.5-18.7-8.5l8.8-18c5.8 2.8 11.7 5.5 17.7 8l-7.8 18.5zm298.8-9.3-8.9-17.9c5.8-2.8 11.5-5.9 17.1-9.1l9.9 17.4c-5.9 3.4-12 6.6-18.1 9.6zm-335.8-8.8c-5.9-3.3-11.9-6.9-17.6-10.6l10.8-16.8c5.4 3.5 11 6.8 16.6 10l-9.8 17.4zm371.5-11.5-10.9-16.8c5.4-3.5 10.8-7.2 16-11l11.8 16.1c-5.5 4.1-11.2 8-16.9 11.7zm-406.1-10.6c-5.5-4-11-8.2-16.3-12.5l12.6-15.5c5 4.1 10.2 8 15.4 11.8l-11.7 16.2zm439.2-13.6-12.7-15.4c5-4.1 9.9-8.4 14.6-12.7l13.6 14.7c-5.1 4.5-10.3 9.1-15.5 13.4zm-471-12.4c-5-4.6-10-9.4-14.8-14.3l14.3-14c4.5 4.6 9.2 9.1 14 13.5l-13.5 14.8zm501.1-15.4-14.4-13.9c4.5-4.6 8.9-9.5 13.1-14.3l15.1 13.1c-4.4 5.1-9 10.2-13.8 15.1zm-529.8-13.9c-4.5-5.1-8.9-10.5-13.1-15.8l15.8-12.3c3.9 5.1 8.1 10.1 12.3 15l-15 13.1zm556.7-17.2-15.9-12.2c3.9-5.1 7.8-10.4 11.4-15.7l16.5 11.3c-3.8 5.6-7.9 11.2-12 16.6zm-581.9-15.2c-3.9-5.6-7.6-11.4-11.2-17.2l17.1-10.4c3.3 5.5 6.9 11 10.5 16.3l-16.4 11.3zm605-18.8L791.4 704c3.3-5.5 6.5-11.2 9.5-16.9l17.7 9.3c-3.2 6-6.6 12.1-10.1 17.9zM182.2 698c-3.2-6-6.3-12.2-9.1-18.4l18.2-8.4c2.7 5.8 5.6 11.7 8.6 17.4l-17.7 9.4zm645.4-20-18.2-8.3c2.7-5.9 5.2-11.9 7.5-17.9l18.6 7.2c-2.3 6.4-5 12.7-7.9 19zM165 660.7c-2.5-6.3-4.8-12.8-7-19.3l19-6.2c2 6.1 4.2 12.3 6.6 18.3l-18.6 7.2zm677.5-21.1-19-6.2c2-6.1 3.8-12.4 5.4-18.6l19.4 5c-1.8 6.7-3.7 13.3-5.8 19.8zm-690.2-17.9c-1.7-6.6-3.3-13.3-4.7-20l19.6-4c1.3 6.3 2.8 12.7 4.4 18.9l-19.3 5.1zm700.6-21.9-19.6-3.9c1.3-6.3 2.4-12.7 3.3-19.1l19.8 2.8c-1 6.7-2.2 13.5-3.5 20.2zM144 581.5c-1-6.7-1.8-13.6-2.4-20.4l19.9-1.8c.6 6.4 1.3 12.9 2.3 19.3l-19.8 2.9zm714.6-22.4-19.9-1.6c.5-6.4.9-12.9 1-19.4l20 .5c-.2 6.8-.5 13.7-1.1 20.5zm-718.2-18.5c-.1-3.9-.2-7.9-.2-11.8 0-2.9 0-5.8.1-8.7l20 .5c-.1 2.7-.1 5.5-.1 8.2 0 3.7.1 7.5.2 11.2l-20 .6zm699.2-21.9c-.2-6.4-.6-13-1.2-19.4l-.1-.6 19.9-1.8.1.7c.6 6.8 1 13.7 1.2 20.5l-19.9.6zm-678.3-17.6-19.9-1.6c.6-6.8 1.3-13.7 2.3-20.4l19.8 2.8c-1 6.3-1.7 12.8-2.2 19.2zm674.8-21.7c-.9-6.4-2.1-12.8-3.4-19.1l19.6-4c1.4 6.7 2.6 13.5 3.6 20.2l-19.8 2.9zm-669.4-16.7-19.6-3.9c1.3-6.7 2.9-13.5 4.6-20.1l19.4 5c-1.7 6.3-3.2 12.7-4.4 19zm661.6-21.3c-1.7-6.2-3.5-12.5-5.5-18.6l19-6.2c2.1 6.5 4.1 13.1 5.8 19.7l-19.3 5.1zm-651.9-16.3-19-6.1c2.1-6.5 4.4-13 6.9-19.4l18.7 7.2c-2.4 6-4.6 12.2-6.6 18.3zm639.8-20.6c-2.4-6-4.9-12-7.6-17.8l18.2-8.4c2.9 6.2 5.6 12.5 8.1 18.9l-18.7 7.3zm-625.8-15.6-18.2-8.3c2.8-6.2 5.9-12.4 9-18.5l17.7 9.3c-2.9 5.8-5.8 11.6-8.5 17.5zM800 369.4c-3-5.7-6.3-11.3-9.6-16.8l17.1-10.4c3.5 5.8 7 11.8 10.2 17.8l-17.7 9.4zm-591.5-14.9-17.1-10.3c3.5-5.9 7.2-11.7 11.1-17.3l16.5 11.2c-3.7 5.4-7.2 10.9-10.5 16.4zm571.3-18.2c-3.6-5.3-7.5-10.5-11.5-15.6l15.8-12.3c4.2 5.4 8.3 11 12.1 16.6l-16.4 11.3zm-549.5-13.8-15.9-12.2c4.1-5.4 8.5-10.8 13-15.9l15.2 13c-4.3 4.9-8.4 9.9-12.3 15.1zM756 305.7c-4.2-4.8-8.7-9.6-13.2-14.2l14.3-14c4.8 4.9 9.5 9.9 14 15.1L756 305.7zm-500.4-12.6-14.4-13.9c4.7-4.9 9.7-9.7 14.7-14.4l13.6 14.7c-4.7 4.4-9.4 8.9-13.9 13.6zM728.9 278c-4.8-4.3-9.7-8.6-14.7-12.7l12.6-15.5c5.3 4.3 10.5 8.8 15.6 13.4L728.9 278zm-444.8-11.3-12.7-15.4c5.3-4.3 10.7-8.6 16.2-12.6l11.8 16.1c-5.2 3.8-10.3 7.8-15.3 11.9zm414.7-13.2c-5.2-3.8-10.6-7.4-16.1-10.9l10.8-16.9c5.7 3.7 11.5 7.6 17 11.5l-11.7 16.3zm-383.4-9.7L304.5 227c5.7-3.7 11.6-7.3 17.5-10.7l9.9 17.4c-5.6 3.2-11.2 6.6-16.5 10.1zM666 232.6c-5.6-3.2-11.4-6.2-17.2-9l8.8-18c6.1 3 12.3 6.2 18.2 9.5l-9.8 17.5zm-317-8-8.9-17.9c6.1-3 12.4-5.9 18.6-8.6l7.8 18.4c-5.8 2.6-11.7 5.3-17.5 8.1zm282.2-9c-5.9-2.5-12-4.8-18.1-7l6.7-18.9c6.4 2.3 12.9 4.8 19.2 7.4l-7.8 18.5zm-246.6-6.2-6.8-18.8c6.4-2.3 13-4.5 19.5-6.4l5.7 19.2c-6.1 1.8-12.3 3.9-18.4 6zm209.9-6.7c-6.2-1.8-12.5-3.4-18.8-4.9l4.5-19.5c6.7 1.5 13.4 3.3 19.9 5.2l-5.6 19.2zm-172.7-4.3-4.6-19.5c6.6-1.6 13.4-2.9 20.1-4.1l3.5 19.7c-6.3 1.1-12.7 2.5-19 3.9zm134.9-4.4c-6.3-1.1-12.8-2-19.2-2.7l2.2-19.9c6.8.7 13.6 1.7 20.4 2.8l-3.4 19.8zm-96.7-2.3-2.3-19.9c3.5-.4 7.2-.8 10.7-1.1 3.2-.3 6.5-.5 9.7-.7l1.2 20c-3 .2-6.1.4-9.2.7-3.3.3-6.7.6-10.1 1zm58.2-1.9c-5.9-.3-11.9-.5-17.8-.5h-1.6l-.1-20h1.7c6.2 0 12.6.2 18.8.5l-1 20z"/><path fill="#122436" d="M500 888.9c-48.6 0-95.7-9.5-140.1-28.3-42.8-18.1-81.3-44.1-114.4-77.1-33-33-59-71.5-77.1-114.4-18.8-44.4-28.3-91.5-28.3-140h20c0 187.4 152.4 339.8 339.8 339.8s339.8-152.4 339.8-339.8h20c0 48.6-9.5 95.7-28.3 140-18.1 42.8-44.1 81.3-77.1 114.4-33 33-71.5 59-114.4 77.1-44.2 18.8-91.3 28.3-139.9 28.3z"/><path fill="#FFF" d="m563.8 738.6 40.4-115.1L500 446.7 395.8 623.5l40.4 115.1z"/><path fill="#122436" d="M570.9 748.6H429.1l-44.2-126.2L500 427l115.2 195.4-44.3 126.2zm-127.6-20h113.5l36.5-104.1L500 466.4l-93.2 158.1 36.5 104.1z"/><path fill="#FFCD35" d="M602.9 783.6H397.1c-11.3 0-20.5-9.2-20.5-20.5v-4c0-11.3 9.2-20.5 20.5-20.5h205.8c11.3 0 20.5 9.2 20.5 20.5v4c0 11.3-9.2 20.5-20.5 20.5z"/><path fill="#122436" d="M602.9 793.6H397.1c-16.8 0-30.5-13.7-30.5-30.5v-4c0-16.8 13.7-30.5 30.5-30.5h205.8c16.8 0 30.5 13.7 30.5 30.5v4c0 16.8-13.7 30.5-30.5 30.5zm-205.8-45c-5.8 0-10.5 4.7-10.5 10.5v4c0 5.8 4.7 10.5 10.5 10.5h205.8c5.8 0 10.5-4.7 10.5-10.5v-4c0-5.8-4.7-10.5-10.5-10.5H397.1zM490 446.7h20V618h-20z"/><circle fill="#122436" cx="500" cy="618" r="25.3"/><path fill="#4EA4DB" d="M500 878.9c29.1 0 57.4-3.6 84.5-10.3v-85.1h-169v85.1c27.1 6.8 55.4 10.3 84.5 10.3z"/><path fill="#122436" d="M500 888.9c-29.3 0-58.5-3.6-86.9-10.6l-7.6-1.9V773.6h188.9v102.9l-7.6 1.9c-28.3 7-57.5 10.5-86.8 10.5zm-74.5-28.2c24.4 5.4 49.4 8.2 74.5 8.2s50.1-2.8 74.5-8.2v-67.1h-149v67.1z"/><g><path fill="#122436" d="M295.3 333.3h409.4v20H295.3z"/><path fill="#122436" d="M714.7 548h-20c0-107.4-87.3-194.7-194.7-194.7-107.4 0-194.7 87.3-194.7 194.7h-20c0-57.4 22.3-111.3 62.9-151.8 40.6-40.6 94.5-62.9 151.8-62.9 57.3 0 111.3 22.3 151.8 62.9s62.9 94.5 62.9 151.8z"/><path fill="#FFCD35" d="M458.1 301.4H542v83.9h-83.9z"/><path fill="#122436" d="M551.9 395.2H448.1V291.4H552v103.8zm-83.8-20H532v-63.9h-63.9v63.9z"/><circle fill="#122436" cx="295.3" cy="343.3" r="33"/><circle fill="#122436" cx="704.7" cy="343.3" r="33"/></g><g><path fill="#FFCD35" d="M540.1 161.1c-12.1 0-21.9-9.8-21.9-21.9 0-10.1-8.2-18.2-18.2-18.2s-18.2 8.2-18.2 18.2c0 12.1-9.8 21.9-21.9 21.9-10.1 0-18.2 8.2-18.2 18.2 0 10.1 8.2 18.2 18.2 18.2 12.1 0 21.9 9.8 21.9 21.9 0 10.1 8.2 18.2 18.2 18.2s18.2-8.2 18.2-18.2c0-12.1 9.8-21.9 21.9-21.9 10.1 0 18.2-8.2 18.2-18.2s-8.1-18.2-18.2-18.2z"/><path fill="#122436" d="M500 247.7c-15.6 0-28.2-12.7-28.2-28.2 0-6.5-5.3-11.9-11.9-11.9-15.6 0-28.2-12.7-28.2-28.2 0-15.6 12.7-28.2 28.2-28.2 6.5 0 11.9-5.3 11.9-11.9 0-15.6 12.7-28.2 28.2-28.2 15.6 0 28.2 12.7 28.2 28.2 0 6.5 5.3 11.9 11.9 11.9 15.6 0 28.2 12.7 28.2 28.2 0 15.6-12.7 28.2-28.2 28.2-6.5 0-11.9 5.3-11.9 11.9 0 15.5-12.6 28.2-28.2 28.2zm0-116.7c-4.5 0-8.2 3.7-8.2 8.2 0 17.6-14.3 31.9-31.9 31.9-4.5 0-8.2 3.7-8.2 8.2 0 4.5 3.7 8.2 8.2 8.2 17.6 0 31.9 14.3 31.9 31.9 0 4.5 3.7 8.2 8.2 8.2 4.5 0 8.2-3.7 8.2-8.2 0-17.6 14.3-31.9 31.9-31.9 4.5 0 8.2-3.7 8.2-8.2 0-4.5-3.7-8.2-8.2-8.2-17.6 0-31.9-14.3-31.9-31.9 0-4.5-3.7-8.2-8.2-8.2z"/></g><g><path fill="#FFCD35" d="M190.3 486.8c-12.1 0-21.9-9.8-21.9-21.9 0-10.1-8.2-18.2-18.2-18.2-10.1 0-18.2 8.2-18.2 18.2 0 12.1-9.8 21.9-21.9 21.9-10.1 0-18.2 8.2-18.2 18.2 0 10.1 8.2 18.2 18.2 18.2 12.1 0 21.9 9.8 21.9 21.9 0 10.1 8.2 18.2 18.2 18.2 10.1 0 18.2-8.2 18.2-18.2 0-12.1 9.8-21.9 21.9-21.9 10.1 0 18.2-8.2 18.2-18.2 0-10.1-8.1-18.2-18.2-18.2z"/><path fill="#122436" d="M150.2 573.3c-15.6 0-28.2-12.7-28.2-28.2 0-6.5-5.3-11.9-11.9-11.9-15.6 0-28.2-12.7-28.2-28.2s12.7-28.2 28.2-28.2c6.5 0 11.9-5.3 11.9-11.9 0-15.6 12.7-28.2 28.2-28.2s28.2 12.7 28.2 28.2c0 6.5 5.3 11.9 11.9 11.9 15.6 0 28.2 12.7 28.2 28.2s-12.7 28.2-28.2 28.2c-6.5 0-11.9 5.3-11.9 11.9 0 15.6-12.6 28.2-28.2 28.2zm0-116.6c-4.5 0-8.2 3.7-8.2 8.2 0 17.6-14.3 31.9-31.9 31.9-4.5 0-8.2 3.7-8.2 8.2 0 4.5 3.7 8.2 8.2 8.2 17.6 0 31.9 14.3 31.9 31.9 0 4.5 3.7 8.2 8.2 8.2s8.2-3.7 8.2-8.2c0-17.6 14.3-31.9 31.9-31.9 4.5 0 8.2-3.7 8.2-8.2 0-4.5-3.7-8.2-8.2-8.2-17.6 0-31.9-14.3-31.9-31.9 0-4.5-3.7-8.2-8.2-8.2z"/><g><path fill="#FFCD35" d="M889.9 486.8c-12.1 0-21.9-9.8-21.9-21.9 0-10.1-8.2-18.2-18.2-18.2s-18.2 8.2-18.2 18.2c0 12.1-9.8 21.9-21.9 21.9-10.1 0-18.2 8.2-18.2 18.2 0 10.1 8.2 18.2 18.2 18.2 12.1 0 21.9 9.8 21.9 21.9 0 10.1 8.2 18.2 18.2 18.2s18.2-8.2 18.2-18.2c0-12.1 9.8-21.9 21.9-21.9 10.1 0 18.2-8.2 18.2-18.2 0-10.1-8.2-18.2-18.2-18.2z"/><path fill="#122436" d="M849.8 573.3c-15.6 0-28.2-12.7-28.2-28.2 0-6.5-5.3-11.9-11.9-11.9-15.6 0-28.2-12.7-28.2-28.2s12.7-28.2 28.2-28.2c6.5 0 11.9-5.3 11.9-11.9 0-15.6 12.7-28.2 28.2-28.2 15.6 0 28.2 12.7 28.2 28.2 0 6.5 5.3 11.9 11.9 11.9 15.6 0 28.2 12.7 28.2 28.2s-12.7 28.2-28.2 28.2c-6.5 0-11.9 5.3-11.9 11.9 0 15.6-12.6 28.2-28.2 28.2zm0-116.6c-4.5 0-8.2 3.7-8.2 8.2 0 17.6-14.3 31.9-31.9 31.9-4.5 0-8.2 3.7-8.2 8.2 0 4.5 3.7 8.2 8.2 8.2 17.6 0 31.9 14.3 31.9 31.9 0 4.5 3.7 8.2 8.2 8.2s8.2-3.7 8.2-8.2c0-17.6 14.3-31.9 31.9-31.9 4.5 0 8.2-3.7 8.2-8.2 0-4.5-3.7-8.2-8.2-8.2-17.6 0-31.9-14.3-31.9-31.9 0-4.5-3.7-8.2-8.2-8.2z"/></g></g></g></switch></svg>