<svg xmlns="http://www.w3.org/2000/svg" viewBox="0 0 1000 1000" xml:space="preserve"><switch><g><path fill="#122436" d="M500 884.7c-3.4 0-6.8 0-10.2-.1l.6-20c6.4.2 13 .2 19.5 0l.6 20c-3.5 0-7 .1-10.5.1zm-30.8-1.4c-6.8-.6-13.8-1.4-20.5-2.4l2.9-19.8c6.4.9 12.9 1.7 19.4 2.3l-1.8 19.9zm61.9 0-1.8-19.9c6.4-.6 13-1.3 19.4-2.3l2.9 19.8c-6.7 1-13.6 1.8-20.5 2.4zm-102.8-6c-6.7-1.4-13.5-3-20.1-4.8l5.2-19.3c6.2 1.7 12.6 3.2 19 4.6l-4.1 19.5zm143.8-.1-4.1-19.6c6.3-1.3 12.7-2.9 19-4.6l5.3 19.3c-6.8 1.9-13.5 3.5-20.2 4.9zm-183.7-10.7c-6.5-2.2-13-4.6-19.4-7.2l7.5-18.5c6 2.4 12.2 4.7 18.3 6.8l-6.4 18.9zm223.6-.2-6.4-18.9c6.1-2.1 12.3-4.4 18.3-6.8l7.5 18.5c-6.4 2.6-12.9 5-19.4 7.2zm-262-15.4c-6.2-3-12.4-6.1-18.4-9.5l9.7-17.5c5.7 3.1 11.5 6.1 17.4 8.9l-8.7 18.1zm300.2-.1-8.6-18c5.8-2.8 11.7-5.8 17.3-8.9l9.7 17.5c-6 3.3-12.2 6.4-18.4 9.4zm-336.5-19.9c-5.8-3.7-11.6-7.6-17.2-11.6l11.7-16.2c5.3 3.8 10.7 7.4 16.2 10.9l-10.7 16.9zm372.7-.1-10.7-16.9c5.5-3.5 10.9-7.1 16.2-10.9l11.7 16.2c-5.6 4.1-11.4 7.9-17.2 11.6zm-406.3-24c-5.3-4.3-10.6-8.9-15.7-13.5l13.5-14.8c4.8 4.4 9.8 8.7 14.8 12.7l-12.6 15.6zm439.9-.1-12.6-15.5c5-4.1 10-8.4 14.8-12.7l13.5 14.8c-5.2 4.5-10.4 9.1-15.7 13.4zm-470.4-27.9c-4.8-4.9-9.5-10.1-14-15.2l15.1-13.1c4.2 4.9 8.7 9.7 13.2 14.4l-14.3 13.9zm500.9 0-14.3-13.9c4.5-4.6 8.9-9.5 13.2-14.4l15.1 13.1c-4.6 5.1-9.3 10.3-14 15.2zm-527.9-31.2c-4.2-5.4-8.2-11.1-12.1-16.8l16.6-11.2c3.6 5.4 7.5 10.7 11.4 15.8l-15.9 12.2zm554.9-.1-15.9-12.2c3.9-5.1 7.8-10.5 11.4-15.8l16.6 11.2c-3.9 5.7-7.9 11.3-12.1 16.8zm-578-34.2c-3.5-5.9-6.9-12-10-18.1l17.8-9.2c3 5.7 6.1 11.5 9.4 17l-17.2 10.3zm601.1-.1L783.4 703c3.3-5.6 6.5-11.3 9.4-17.1l17.8 9.1c-3.1 6.2-6.5 12.3-10 18.2zm-620.1-36.6c-2.8-6.3-5.4-12.7-7.8-19.1l18.7-7c2.3 6 4.7 12.1 7.3 18l-18.2 8.1zm639.1-.3-18.3-8.1c2.6-5.9 5.1-12 7.3-18.1l18.7 7c-2.3 6.5-5 12.9-7.7 19.2zm-653.5-38.4c-2-6.6-3.8-13.3-5.5-20l19.4-4.7c1.5 6.3 3.3 12.6 5.1 18.8l-19 5.9zm667.9-.4-19.1-5.8c1.9-6.2 3.6-12.5 5.1-18.8l19.4 4.7c-1.6 6.6-3.4 13.3-5.4 19.9zm-677.6-39.8c-1.2-6.8-2.2-13.6-3-20.5l19.9-2.4c.8 6.4 1.7 12.9 2.9 19.3l-19.8 3.6zm687.3-.4-19.7-3.5c1.1-6.4 2.1-12.9 2.9-19.3l19.9 2.3c-.9 6.9-1.9 13.7-3.1 20.5zm-692.2-40.7c-.4-6.8-.6-13.8-.6-20.7h20c0 6.5.2 13.1.6 19.5l-20 1.2zm697-.4-20-1.2c.4-6.5.6-13 .6-19.5v-.7h20v.8c0 6.8-.2 13.8-.6 20.6zm-677.1-39.8-20-1.1c.4-6.9 1-13.8 1.8-20.6l19.9 2.3c-.7 6.4-1.3 12.9-1.7 19.4zm657.1-1c-.4-6.5-1-13-1.8-19.4l19.9-2.4c.8 6.8 1.4 13.7 1.9 20.6l-20 1.2zM176 477.7l-19.7-3.5c1.2-6.8 2.6-13.6 4.2-20.3l19.4 4.7c-1.5 6.3-2.8 12.7-3.9 19.1zm647.9-1c-1.2-6.4-2.5-12.8-4-19.1l19.4-4.7c1.6 6.7 3.1 13.5 4.3 20.2l-19.7 3.6zM185 439.8l-19.1-5.8c2-6.6 4.2-13.2 6.6-19.6l18.8 6.9c-2.3 6.1-4.4 12.3-6.3 18.5zm629.7-1c-1.9-6.2-4-12.4-6.3-18.5l18.7-7c2.4 6.4 4.6 13 6.7 19.6l-19.1 5.9zm-616.1-35.6-18.3-8.1c2.8-6.3 5.8-12.6 8.9-18.7l17.8 9.1c-3 5.8-5.8 11.8-8.4 17.7zm602.4-.9c-2.6-5.9-5.4-11.8-8.4-17.6l17.8-9.2c3.1 6.1 6.2 12.4 8.9 18.6l-18.3 8.2zm-584.6-33.8-17.2-10.2c3.5-5.9 7.2-11.8 11.1-17.5l16.6 11.2c-3.7 5.3-7.2 10.9-10.5 16.5zm566.8-.8c-3.3-5.6-6.8-11.1-10.4-16.5l16.6-11.2c3.8 5.7 7.6 11.5 11.1 17.4l-17.3 10.3zm-545-31.6L222.3 324c4.2-5.5 8.6-10.9 13-16.1l15.2 13c-4.2 4.9-8.4 10-12.3 15.2zm523.1-.6c-3.9-5.1-8.1-10.2-12.3-15.1l15.1-13.1c4.5 5.2 8.9 10.6 13.1 16l-15.9 12.2zm-497.7-29-14.4-13.9c4.8-4.9 9.8-9.8 14.8-14.4l13.5 14.7c-4.6 4.4-9.3 9-13.9 13.6zm472.2-.5c-4.5-4.6-9.2-9.2-14-13.6l13.5-14.8c5.1 4.6 10.1 9.5 14.9 14.4l-14.4 14zm-443.4-25.8-12.6-15.5c5.3-4.3 10.8-8.6 16.4-12.6l11.7 16.2c-5.3 3.8-10.5 7.8-15.5 11.9zm414.6-.5c-5-4.1-10.3-8.1-15.5-11.8l11.7-16.3c5.6 4 11.1 8.2 16.5 12.5L707 279.7zm-383-22.3-10.7-16.9c5.8-3.7 11.8-7.2 17.8-10.5l9.7 17.5c-5.7 3.1-11.3 6.4-16.8 9.9zm351.3-.4c-5.5-3.5-11.1-6.8-16.8-9.9l9.6-17.5c6 3.3 12 6.9 17.8 10.5L675.3 257zm-317.2-18.5-8.6-18c6.2-3 12.5-5.8 18.9-8.4l7.5 18.5c-6 2.5-12 5.1-17.8 7.9zm283-.4c-5.9-2.8-11.9-5.4-17.9-7.9l7.5-18.5c6.4 2.6 12.8 5.4 19 8.3l-8.6 18.1zm-247-14.3-6.4-18.9c6.5-2.2 13.2-4.2 19.8-6.1l5.3 19.3c-6.3 1.7-12.5 3.7-18.7 5.7zm210.8-.3c-6.1-2.1-12.4-4-18.7-5.7l5.2-19.3c6.6 1.8 13.3 3.8 19.8 6l-6.3 19zm-173.2-10-4.1-19.6c6.7-1.4 13.6-2.6 20.4-3.7l3 19.8c-6.5 1-13 2.2-19.3 3.5zm135.6-.2c-6.3-1.3-12.8-2.5-19.2-3.4l2.9-19.8c6.8 1 13.7 2.2 20.4 3.6l-4.1 19.6zm-97-5.5-1.8-19.9c6.8-.6 13.8-1 20.6-1.2l.6 20c-6.5.1-13 .5-19.4 1.1zm58.4-.1c-6.4-.6-13-.9-19.5-1.1l.6-20c6.9.2 13.8.6 20.6 1.2l-1.7 19.9z"/><path fill="#122436" d="M849.1 535.6h-20c0-181.5-147.6-329.1-329.1-329.1S170.9 354.1 170.9 535.6h-20c0-47.1 9.2-92.8 27.4-135.9 17.6-41.6 42.8-78.9 74.8-111 32.1-32.1 69.4-57.2 111-74.8 43-18.2 88.8-27.4 135.9-27.4s92.8 9.2 135.9 27.4c41.6 17.6 78.9 42.8 111 74.8 32.1 32.1 57.2 69.4 74.8 111 18.2 43 27.4 88.7 27.4 135.9zM253.7 251.9l-13.1-15.1c5.1-4.5 10.5-8.9 15.8-13.1l12.3 15.8c-5 4-10.1 8.2-15 12.4zm483.9-7.3c-5-4.1-10.2-8.1-15.4-11.9l11.8-16.1c5.5 4 10.9 8.3 16.2 12.6l-12.6 15.4zm-453.2-16.7-11.5-16.4c5.6-3.9 11.3-7.7 17.1-11.3l10.6 16.9c-5.5 3.5-10.9 7.1-16.2 10.8zm421.9-6.3c-5.4-3.6-11-7-16.5-10.3l10.1-17.3c5.9 3.4 11.7 7.1 17.4 10.8l-11 16.8zm-388.9-14.4-9.7-17.5c5.9-3.3 12.1-6.5 18.2-9.5l8.8 18c-5.9 2.9-11.7 5.9-17.3 9zm355.3-5.3c-5.7-3-11.6-5.8-17.5-8.5l8.3-18.2c6.2 2.8 12.4 5.8 18.5 9l-9.3 17.7zm-320.4-11.8-7.9-18.4c6.3-2.7 12.7-5.2 19.1-7.6l6.9 18.8c-6.1 2.2-12.1 4.6-18.1 7.2zm284.9-4.3c-6-2.4-12.2-4.6-18.3-6.6l6.3-19c6.5 2.2 13 4.5 19.3 7l-7.3 18.6zm-248.3-9.2-5.9-19.1c6.5-2 13.2-3.9 19.7-5.5l4.9 19.4c-6.3 1.6-12.6 3.3-18.7 5.2zm211.4-3.1c-6.2-1.7-12.6-3.3-18.9-4.7l4.3-19.5c6.7 1.5 13.4 3.1 19.9 4.9l-5.3 19.3zm-173.7-6.4-3.9-19.6c6.7-1.3 13.5-2.5 20.2-3.5l2.9 19.8c-6.4.9-12.9 2-19.2 3.3zm135.6-2c-6.4-1.1-12.9-2-19.3-2.7l2.3-19.9c6.8.8 13.6 1.7 20.3 2.8l-3.3 19.8zm-97.1-3.6-1.8-19.9c6.8-.6 13.7-1.1 20.5-1.4l.8 20c-6.5.3-13.1.7-19.5 1.3zm58.4-.8c-6.4-.4-13-.6-19.5-.7l.2-20c6.8.1 13.7.3 20.5.7l-1.2 20z"/><circle fill="#4EA4DB" cx="500" cy="535.6" r="290.4"/><circle fill="#FFF" cx="500" cy="535.6" r="229.8"/><circle fill="#4EA4DB" cx="500" cy="535.6" r="174.3"/><circle fill="#FFF" cx="500" cy="535.6" r="114.5"/><circle fill="#FFCD35" cx="500" cy="535.6" r="56"/><g><path fill="#122436" d="M500 836c-80.3 0-155.7-31.3-212.4-88-56.7-56.7-88-132.2-88-212.4s31.3-155.7 88-212.4c56.7-56.7 132.2-88 212.4-88s155.7 31.3 212.4 88c56.7 56.7 88 132.2 88 212.4s-31.3 155.7-88 212.4c-56.7 56.8-132.1 88-212.4 88zm0-580.9c-154.6 0-280.4 125.8-280.4 280.4C219.6 690.2 345.4 816 500 816s280.4-125.8 280.4-280.4c0-154.7-125.8-280.5-280.4-280.5z"/></g><g><circle fill="#4EA4DB" cx="500.1" cy="233.5" r="40.2"/><path fill="#FFF" d="M500.1 125.3c-59.7 0-108.2 48.4-108.2 108.2 0 59.7 108.2 302.1 108.2 302.1s108.2-242.4 108.2-302.1c-.1-59.8-48.5-108.2-108.2-108.2zm0 148.3c-22.2 0-40.2-18-40.2-40.2s18-40.2 40.2-40.2c22.2 0 40.2 18 40.2 40.2s-18.1 40.2-40.2 40.2z"/><path fill="#122436" d="M500.1 545.6c-3.9 0-7.5-2.3-9.1-5.9-4.5-10-109-245-109-306.2 0-65.2 53-118.2 118.2-118.2s118.2 53 118.2 118.2c0 61.2-104.6 296.2-109 306.2-1.8 3.5-5.4 5.9-9.3 5.9zm0-410.3c-54.1 0-98.2 44-98.2 98.2 0 42 59.8 189.5 98.2 277.3 38.4-87.9 98.2-235.3 98.2-277.3-.1-54.2-44.1-98.2-98.2-98.2zm0 148.3c-27.7 0-50.2-22.5-50.2-50.2s22.5-50.2 50.2-50.2c27.7 0 50.2 22.5 50.2 50.2s-22.6 50.2-50.2 50.2zm0-80.3c-16.6 0-30.2 13.5-30.2 30.2s13.5 30.2 30.2 30.2c16.6 0 30.2-13.5 30.2-30.2s-13.6-30.2-30.2-30.2z"/><g><circle fill="#FFCD35" cx="498.9" cy="233.5" r="108.2"/><path fill="#FFF" d="M498.9 152.1c55.2 0 100.7 41.4 107.3 94.8.5-4.4.9-8.8.9-13.4 0-59.7-48.4-108.2-108.2-108.2s-108.2 48.4-108.2 108.2c0 4.5.3 9 .9 13.4 6.6-53.5 52.1-94.8 107.3-94.8z"/><path fill="#122436" d="M498.9 351.6c-65.2 0-118.2-53-118.2-118.2s53-118.2 118.2-118.2 118.2 53 118.2 118.2S564 351.6 498.9 351.6zm0-216.3c-54.1 0-98.2 44-98.2 98.2s44 98.2 98.2 98.2c54.1 0 98.2-44 98.2-98.2s-44.1-98.2-98.2-98.2z"/><g><path fill="#FFF" d="M522.9 266.3c-3.9 4-9.1 6.6-15.7 7.9v5.1c0 2.2-.7 3.9-2 5.3-1.4 1.3-3.1 2-5.3 2-2.2 0-3.9-.7-5.3-2s-2-3.1-2-5.3v-4.7c-7.8-1-14.4-3.3-20-6.8-1.3-.8-2.2-1.6-2.7-2.6s-.8-2.3-.8-3.9c0-2.1.6-3.9 1.8-5.5 1.2-1.5 2.7-2.3 4.4-2.3.8 0 1.7.1 2.5.4.8.3 1.9.8 3.3 1.6 3.1 1.7 6 2.9 8.6 3.6 2.7.7 5.5 1.1 8.5 1.1 3.7 0 6.5-.6 8.5-1.8 1.9-1.2 2.9-3.1 2.9-5.5 0-1.5-.6-2.7-1.7-3.6-1.2-.9-2.6-1.7-4.3-2.3-1.7-.6-4.2-1.3-7.5-2.1-5.3-1.3-9.6-2.7-12.9-4-3.4-1.4-6.3-3.5-8.7-6.4-2.5-2.9-3.7-6.8-3.7-11.7 0-5.6 2-10.5 5.9-14.6 3.9-4.1 9.1-6.9 15.5-8.2v-5.3c0-2.1.7-3.8 2.1-5.2 1.4-1.4 3.2-2 5.3-2 2.2 0 3.9.7 5.3 2s2 3.1 2 5.3v4.9c5.8.9 11.5 3.1 17 6.6 1.3.8 2.2 1.8 2.7 2.8.5 1 .8 2.3.8 3.7 0 2.1-.6 3.9-1.9 5.5-1.3 1.5-2.7 2.3-4.4 2.3-.8 0-1.6-.1-2.4-.4-.8-.3-1.9-.8-3.4-1.6-.5-.3-1.6-.9-3.3-1.7-1.7-.9-3.5-1.6-5.4-2.1-1.9-.5-4-.8-6.1-.8-3.2 0-5.7.7-7.7 2-2 1.4-2.9 3.2-2.9 5.5 0 2.2 1.1 3.9 3.4 5 2.2 1.1 5.8 2.2 10.6 3.4 5.2 1.2 9.4 2.5 12.8 3.8 3.3 1.3 6.2 3.5 8.6 6.4 2.4 2.9 3.6 6.9 3.6 11.9-.2 5.5-2.1 10.3-6 14.3z"/></g></g></g></g></switch></svg>