<svg xmlns="http://www.w3.org/2000/svg" viewBox="0 0 256 256" xml:space="preserve"><path fill="#EFEFEF" d="M170.61 106.99v61.8l14.02 4.72v72.16c0 2.76-2.24 5-5 5H14.07c-2.76 0-5-2.24-5-5V10.33c0-2.76 2.24-5 5-5h137.24l33.32 33.33v63.61l-14.02 4.72z"/><path fill="#AFAFAF" d="M122.39 106.99v61.8h48.22l14.02 4.72v5.28l-14.84-5h-14.66l4.99 28.74c.851 4.834-2.87 9.37-7.88 9.37h-14.69c-3.9 0-7.22-2.79-7.88-6.63l-5.47-31.48h-10.6c-8.63 0-15.68-6.84-16.03-15.38H93.4c-5.52 0-10-4.49-10-10v-21.04c0-5.51 4.48-10 10-10h4.17c.35-8.54 7.4-15.38 16.02-15.38h56.2l14.84-5v5.28l-14.02 4.72h-48.22z"/><path fill="#7C7B7A" d="M61.61 37.302H37.007l.005-7.119a4.34 4.34 0 0 1 4.339-4.336h12.695a9.55 9.55 0 0 0 4.422-1.085l5.302-2.768c2.682 5.354 1.563 11.342-2.16 15.308z"/><path fill="#FFB69F" d="M50.459 58.659h-2.306c-6.156 0-11.146-4.99-11.146-11.146V37.301h24.598v10.212c-.001 6.156-4.991 11.146-11.146 11.146z"/><path fill="#FC5D3D" d="M72.951 72.991v14.083l-47.658.01V72.991c0-7.911 6.421-14.332 14.332-14.332H58.62c7.91 0 14.331 6.421 14.331 14.332zM152.24 206.897h-14.692a3 3 0 0 1-2.956-2.486l-6.189-35.623h20.782l6.01 34.596a3 3 0 0 1-2.955 3.513zM102.56 153.411h-9.161a5 5 0 0 1-5-5v-21.04a5 5 0 0 1 5-5h9.161v31.04z"/><path fill="#72C2E9" d="M122.386 106.99v.004h-8.795c-6.091 0-11.034 4.943-11.034 11.035v39.724c0 6.091 4.943 11.034 11.034 11.034h8.795v.003h48.224v-61.8h-48.224z"/><path fill="#FC5D3D" d="M202.93 96.11v83.56l-18.3-6.16-14.02-4.72v-61.8l14.02-4.72z"/><path fill="#72C2E9" d="M217.55 91.26v93.9c0 4.03-3.27 7.31-7.31 7.31a7.313 7.313 0 0 1-7.31-7.31v-93.9c0-4.03 3.28-7.31 7.31-7.31a7.309 7.309 0 0 1 7.31 7.31z"/><path fill="#FC5D3D" d="M238 138.21c0 11.52-9.07 20.93-20.45 21.47v-42.94c11.38.54 20.45 9.95 20.45 21.47z"/><path fill="#C5E5FE" d="M160.667 161.29h-2.422a2.5 2.5 0 1 1 0-5h2.422a2.5 2.5 0 1 1 0 5zm-12.423 0H113.59a3.54 3.54 0 0 1-3.53-3.54v-39.72a2.5 2.5 0 1 1 5 0v38.26h33.184a2.5 2.5 0 1 1 0 5z"/><path fill="#FFCBC3" d="M192.931 168.25c-.669 0 .544.321-21.09-6.96h-1.231a2.5 2.5 0 1 1 0-5h1.64c.271 0 .541.044.797.13l20.68 6.96a2.499 2.499 0 0 1-.796 4.87z"/><path fill="#FFF" d="M174.63 243.17H35.3a2.5 2.5 0 1 1 0-5h136.83V181a2.5 2.5 0 1 1 5 0v59.67a2.5 2.5 0 0 1-2.5 2.5zm-149.33 0h-6.23a2.5 2.5 0 1 1 0-5h6.23a2.5 2.5 0 1 1 0 5zM174.63 94.83a2.5 2.5 0 0 1-2.5-2.5V50a2.5 2.5 0 0 1 5 0v42.33a2.5 2.5 0 0 1-2.5 2.5z"/><path d="M22.792 72.991v14.093a2.5 2.5 0 1 0 5 0V72.991c0-6.524 5.308-11.832 11.832-11.832h18.995c6.524 0 11.832 5.308 11.832 11.832v14.083a2.5 2.5 0 1 0 5 0V72.991c0-8.52-6.368-15.564-14.591-16.665a13.576 13.576 0 0 0 3.245-8.813v-9.295c4.116-5.001 4.736-11.687 1.905-17.349a2.508 2.508 0 0 0-3.4-1.09l-5.3 2.76c-1 .53-2.13.81-3.26.81h-12.7c-3.77 0-6.83 3.06-6.84 6.83 0 4.49-.003 8.683-.003 17.333a13.58 13.58 0 0 0 3.2 8.763c-8.38.957-14.915 8.084-14.915 16.716zm25.36-16.832c-4.767 0-8.646-3.878-8.646-8.646v-7.712h19.598v7.712c0 4.767-3.878 8.646-8.646 8.646h-2.306zM39.51 30.18c0-1.01.83-1.83 1.84-1.83h12.7c1.93 0 3.86-.48 5.57-1.37l2.81-1.46a10.88 10.88 0 0 1-1.97 9.28H39.51v-4.62zM105.5 65.49h33.77a2.5 2.5 0 0 0 0-5H105.5a2.5 2.5 0 0 0 0 5zM105.5 82.23h45.8a2.5 2.5 0 0 0 0-5h-45.8a2.5 2.5 0 0 0 0 5zM25.53 131.32H59.3c1.37 0 2.5-1.12 2.5-2.5 0-1.37-1.13-2.5-2.5-2.5H25.53c-1.38 0-2.5 1.13-2.5 2.5a2.5 2.5 0 0 0 2.5 2.5zM25.53 148.07h45.8a2.5 2.5 0 0 0 0-5h-45.8a2.5 2.5 0 0 0 0 5zM85.59 200.89H25.53a2.5 2.5 0 0 0 0 5h60.06a2.5 2.5 0 0 0 0-5zM23.03 220.13a2.5 2.5 0 0 0 2.5 2.5h72.09a2.5 2.5 0 0 0 0-5H25.53a2.5 2.5 0 0 0-2.5 2.5zM231.37 79.73a2.5 2.5 0 0 0 5 0v-3.16c0-1.37-1.12-2.5-2.5-2.5s-2.5 1.13-2.5 2.5v3.16zM233.87 69.51a2.5 2.5 0 0 0 2.5-2.5V42.73c0-1.37-1.12-2.5-2.5-2.5s-2.5 1.13-2.5 2.5v24.28a2.5 2.5 0 0 0 2.5 2.5zM241.75 79.73a2.5 2.5 0 0 0 5 0v-3.16c0-1.37-1.12-2.49-2.5-2.49s-2.5 1.12-2.5 2.49v3.16zM244.25 69.51a2.5 2.5 0 0 0 2.5-2.5V42.74a2.5 2.5 0 0 0-5 0v24.27a2.5 2.5 0 0 0 2.5 2.5zM132.26 191c1.366-.228 2.267-1.524 2.04-2.89-.24-1.34-1.54-2.27-2.89-2.04a2.515 2.515 0 0 0-2.04 2.89c.254 1.464 1.668 2.3 2.89 2.04z"/><circle cx="217.55" cy="181.26" r="2.5"/><circle cx="9.07" cy="49.1" r="2.5"/><path d="M6.57 245.67c0 4.13 3.37 7.5 7.5 7.5h165.56c4.13 0 7.5-3.37 7.5-7.5v-68.68l13.3 4.477v3.692c0 8.512 10.146 12.939 16.4 7.27a2.506 2.506 0 0 0 .17-3.54c-.89-.98-2.55-1.06-3.53-.17-3.072 2.801-8.04.592-8.04-3.56v-93.9c0-2.65 2.16-4.81 4.81-4.81s4.8 2.16 4.81 4.81v80a2.5 2.5 0 0 0 5 0v-9.318c11.504-1.707 20.45-11.603 20.45-23.732 0-12.081-8.9-22.018-20.45-23.732V91.26c0-5.41-4.4-9.81-9.81-9.81-5.4.01-9.8 4.41-9.81 9.81v3.052l-13.3 4.477V38.66c0-.671-.319-1.364-.73-1.77L153.149 3.649a2.56 2.56 0 0 0-1.839-.819H14.07c-4.13 0-7.5 3.37-7.5 7.5V39.1a2.5 2.5 0 0 0 5 0V10.33a2.5 2.5 0 0 1 2.5-2.5H148.8v25.82c.01 4.14 3.37 7.5 7.51 7.5h25.82v59.323l-11.934 4.017H113.59c-7.46.01-13.53 6.08-13.53 13.54v1.84H93.4c-4.14 0-7.5 3.37-7.5 7.5v21.04c0 4.13 3.36 7.5 7.5 7.5h6.66v1.84c0 7.46 6.07 13.54 13.53 13.54h12.71l1.36 7.82c.23 1.35 1.54 2.27 2.89 2.04a2.51 2.51 0 0 0 2.04-2.89l-1.22-6.97h15.71c.009.051 5.66 32.558 5.66 32.61 0 .26-.23.5-.5.5h-14.69c-.25 0-.45-.18-.49-.42l-1.05-6.02a2.523 2.523 0 0 0-2.89-2.03c-1.375.23-2.266 1.533-2.04 2.89l1.05 6.02a5.495 5.495 0 0 0 5.42 4.56h14.69c3.324-.011 5.998-2.991 5.42-6.44l-5.501-31.67h18.038l11.933 4.017v70.363a2.5 2.5 0 0 1-2.5 2.5H14.07a2.5 2.5 0 0 1-2.5-2.5V59.1a2.5 2.5 0 0 0-5 0v186.57zM235.5 138.21c0 9.14-6.49 16.98-15.45 18.67v-37.34c8.96 1.69 15.45 9.53 15.45 18.67zM156.31 36.15c-1.38 0-2.5-1.12-2.51-2.5V11.37l24.8 24.78h-22.29zm44.12 140.039-27.32-9.197v-58.205l27.32-9.197v76.599zM93.4 150.91a2.5 2.5 0 0 1-2.5-2.5v-21.04c0-1.37 1.12-2.5 2.5-2.5h6.66v26.04H93.4zm20.19 15.38c-4.7-.01-8.53-3.84-8.53-8.54v-39.72c0-4.7 3.83-8.53 8.53-8.54h54.52v56.8h-54.52z"/></svg>