<svg version="1.1" id="ecommerce_1_" xmlns="http://www.w3.org/2000/svg" x="0" y="0" viewBox="0 0 115 115" style="enable-background:new 0 0 115 115" xml:space="preserve"><style>.st0{fill:#ffeead}.st1{fill:#c9b77d}.st2{fill:#99734a}.st3{fill:#ff6f69}.st4{fill:#96ceb4}.st7{fill:#71a58a}.st8{fill:#ffcc5c}</style><g id="supply_chain_management_1_"><path class="st3" d="M51.775 77.082h-1.187v11.081h3.207v-9.061a2.02 2.02 0 0 0-2.02-2.02z"/><path class="st8" d="M28.216 58.344H6.746a5.172 5.172 0 0 0-5.172 5.172v20.498a5.172 5.172 0 0 0 5.172 5.172h26.641v-25.67a5.171 5.171 0 0 0-5.171-5.172z"/><path class="st4" d="M28.216 58.343H6.746a5.173 5.173 0 0 0-5.172 5.172v.599h31.813v-.599a5.172 5.172 0 0 0-5.171-5.172z"/><path class="st3" d="M47.644 64.141H33.387v25.044h14.399a3.496 3.496 0 0 0 3.496-3.496V67.78a3.638 3.638 0 0 0-3.638-3.639z"/><path class="st4" d="M1.575 87.703h47.019v2.369H1.575z"/><path class="st4" d="M53.011 83.4H48.56c-.876 0-1.586.71-1.586 1.586v3.499c0 .876.71 1.586 1.586 1.586h4.451c.876 0 1.586-.71 1.586-1.586v-3.499c0-.875-.71-1.586-1.586-1.586zM6.089 83.4H1.637c-.876 0-1.586.71-1.586 1.586v3.499c0 .876.71 1.586 1.586 1.586h4.451c.876 0 1.586-.71 1.586-1.586v-3.499A1.585 1.585 0 0 0 6.089 83.4z"/><path class="st2" d="M46.897 67.729c-.945 0-1.672.79-1.541 1.675l.952 6.412c.108.726.765 1.266 1.541 1.266h3.433v-9.353h-4.385zM43.905 68.735c-.083-.577-.604-1.006-1.219-1.006h-5.483c-.68 0-1.23.521-1.23 1.163v7.027c0 .642.551 1.163 1.23 1.163h6.495c.746 0 1.32-.622 1.219-1.32l-1.012-7.027z"/><path class="st7" d="M21.124 89.098a6.51 6.51 0 0 0-12.434 0c-.297.957.447 1.925 1.449 1.925h9.536c1.002 0 1.746-.968 1.449-1.925z"/><circle class="st2" cx="14.907" cy="91.029" r="4.594"/><circle class="st0" cx="14.907" cy="91.029" r="1.709"/><g><path class="st7" d="M46.621 89.098a6.51 6.51 0 0 0-12.434 0c-.297.957.447 1.925 1.448 1.925h9.536c1.004 0 1.747-.968 1.45-1.925z"/><circle class="st2" cx="40.405" cy="91.029" r="4.594"/><circle class="st0" cx="40.405" cy="91.029" r="1.709"/></g><g><path class="st7" d="M81.784 79.443c2.928-1.73 4.898-4.906 4.898-8.549 0-5.488-4.455-9.936-9.951-9.936s-9.951 4.449-9.951 9.936c0 3.6 1.924 6.744 4.796 8.487a7.757 7.757 0 0 0-2.725 5.904c0 .113.012.222.017.333a14.972 14.972 0 0 0 5.851 1.964c.178.021.358.035.537.049.404.032.809.062 1.222.062.525 0 1.044-.027 1.556-.08.191-.02.375-.059.563-.086a14.976 14.976 0 0 0 5.84-2.12c.001-.041.006-.081.006-.122a7.758 7.758 0 0 0-2.659-5.842zM110.153 79.443c2.928-1.73 4.898-4.906 4.898-8.549 0-5.488-4.455-9.936-9.951-9.936s-9.951 4.449-9.951 9.936c0 3.6 1.924 6.744 4.796 8.487a7.754 7.754 0 0 0-2.725 5.904c0 .113.012.222.017.333a14.972 14.972 0 0 0 5.851 1.964c.178.021.358.035.537.049.404.032.809.062 1.222.062.525 0 1.044-.027 1.556-.08.191-.02.375-.059.563-.086a14.976 14.976 0 0 0 5.84-2.12c.001-.041.006-.081.006-.122a7.755 7.755 0 0 0-2.659-5.842z"/></g><g><path class="st3" d="M97.302 84.917c-.37.216-.75.415-1.143.593-.438.2-.886.38-1.35.53.017.134.046.266.046.404 0 1.37-.887 2.546-2.174 3.143a4.436 4.436 0 0 1-.519.203l-.013.004a4.507 4.507 0 0 1-1.343.216c-.473 0-.921-.085-1.343-.216l-.013-.004a4.436 4.436 0 0 1-.519-.203c-1.287-.597-2.174-1.773-2.174-3.143 0-.165.03-.322.055-.48-.45-.154-.886-.334-1.312-.536a12.637 12.637 0 0 1-1.102-.59 9.956 9.956 0 0 0-3.573 7.648c0 .144.016.284.022.427a19.143 19.143 0 0 0 7.491 2.518c.228.027.458.045.688.063.518.042 1.036.079 1.564.079.673 0 1.337-.035 1.992-.102.244-.025.48-.076.721-.11a19.136 19.136 0 0 0 7.477-2.719c.001-.053.008-.104.008-.157a9.95 9.95 0 0 0-3.486-7.568z"/><path class="st1" d="M94.809 86.04a12.734 12.734 0 0 1-3.895.615c-.987 0-1.943-.124-2.865-.337a12.62 12.62 0 0 1-1.238-.354c-.025.159-.055.316-.055.48 0 1.37.887 2.546 2.174 3.143.167.077.339.146.519.203l.013.004c.422.131.87.216 1.343.216s.921-.085 1.343-.216l.013-.004c.18-.057.352-.126.519-.203 1.287-.597 2.174-1.773 2.174-3.143.002-.138-.027-.27-.045-.404z"/><circle class="st0" cx="90.915" cy="74.035" r="12.74"/><ellipse class="st2" cx="85.635" cy="77.58" rx="1.466" ry="1.885"/><ellipse class="st2" cx="95.198" cy="77.58" rx="1.466" ry="1.885"/><path class="st2" d="M90.915 61.294c-7.036 0-12.74 5.704-12.74 12.74 0 1.456.256 2.849.706 4.153l.008-.079c.039-.398.079-.797.175-1.184.145-.583.416-1.126.701-1.655a29.864 29.864 0 0 1 2.104-3.312c2.035-.086 4.101.004 6.126-.216 2.689-.293 5.336-1.216 7.595-2.69a9.438 9.438 0 0 0 3.601 4.789 9.16 9.16 0 0 0 2.185 1.088c.463 1.733.681 3.527.656 5.321a12.675 12.675 0 0 0 1.623-6.214c.001-7.037-5.703-12.741-12.74-12.741z"/></g><g><path class="st7" d="M95.348 32.408a.922.922 0 0 1-.309-1.21l1.922-3.507a.915.915 0 0 0-.896-1.351l-13.837 1.416a.916.916 0 0 0-.725 1.323l6.249 12.426a.916.916 0 0 0 1.621.029l1.492-2.721c.301-.548.984-.568 1.479-.185 4.203 3.245 6.704 9.414 2.684 16.748l-.017.03c-.455.825.447 1.741 1.254 1.255a13.067 13.067 0 0 0 4.763-4.932c3.556-6.486.993-14.821-5.68-19.321z"/></g><g><path class="st7" d="m74.47 96.911-13.905.333a.916.916 0 0 0-.72 1.453l1.822 2.512c.367.506.092 1.133-.465 1.417-4.731 2.411-11.377 2.033-16.287-4.738a.485.485 0 0 1-.02-.028c-.551-.764-1.765-.34-1.671.597a13.057 13.057 0 0 0 2.421 6.415c4.341 5.987 12.971 7.236 19.893 3.129a.922.922 0 0 1 1.226.238l2.348 3.238a.916.916 0 0 0 1.605-.232l4.639-13.113a.916.916 0 0 0-.886-1.221z"/></g><g><path class="st7" d="M35.432 27.495a13.078 13.078 0 0 0-6.779-1.028c-7.346.857-12.658 7.772-12.462 15.819a.924.924 0 0 1-.808.953l-3.972.463a.916.916 0 0 0-.583 1.513l9.167 10.461a.915.915 0 0 0 1.498-.175l6.513-12.29a.916.916 0 0 0-.915-1.339l-3.082.36c-.621.072-1.033-.474-1.008-1.099.212-5.306 3.793-10.917 12.101-11.886l.034-.004c.934-.105 1.159-1.371.296-1.748z"/></g><g><path class="st2" d="M46.058 14.038a.874.874 0 0 0-.874.874v3.886a.874.874 0 1 0 1.748 0v-3.886a.875.875 0 0 0-.874-.874zM72.744 14.038a.874.874 0 0 0-.874.874v3.886a.874.874 0 1 0 1.748 0v-3.886a.875.875 0 0 0-.874-.874z"/><path class="st3" d="M77.907 33.653a4.828 4.828 0 0 0-4.831-4.824l-26.683.021a4.828 4.828 0 0 0-4.824 4.831l.012 15.953a4.828 4.828 0 0 0 4.831 4.824l26.683-.02a4.828 4.828 0 0 0 4.824-4.831l-.012-15.954z"/><path d="M77.907 33.653a4.828 4.828 0 0 0-4.831-4.824l-26.683.021a4.828 4.828 0 0 0-4.824 4.831l.004 4.608c.23.048.468.073.713.073h1.145a3.5 3.5 0 0 0 3.501-3.501 3.501 3.501 0 0 0 3.501 3.501h1.145a3.5 3.5 0 0 0 3.501-3.501 3.501 3.501 0 0 0 3.501 3.501h1.145a3.5 3.5 0 0 0 3.501-3.501 3.501 3.501 0 0 0 3.501 3.501h1.145a3.5 3.5 0 0 0 3.501-3.501 3.501 3.501 0 0 0 3.501 3.501h1.145c.697 0 1.342-.209 1.888-.56v-4.149z" style="fill:#e05858"/><path class="st4" d="M40.748 19.033c-1.085 0-1.964.88-1.964 1.964v9.005h8.148V19.033h-6.184z"/><path class="st0" d="M46.932 19.033h8.148v10.969h-8.148z"/><path class="st4" d="M55.08 19.033h8.148v10.969H55.08z"/><path class="st0" d="M63.228 19.033h8.148v10.969h-8.148z"/><path class="st4" d="M77.56 19.033h-6.184v10.969h8.148v-9.005a1.964 1.964 0 0 0-1.964-1.964z"/><path class="st7" d="M38.784 30.003v2.249a3.501 3.501 0 0 0 3.501 3.501h1.145a3.501 3.501 0 0 0 3.501-3.501v-2.249h-8.147z"/><path class="st1" d="M46.932 30.003v2.249a3.501 3.501 0 0 0 3.501 3.501h1.145a3.501 3.501 0 0 0 3.501-3.501v-2.249h-8.147z"/><path class="st7" d="M55.08 30.003v2.249a3.501 3.501 0 0 0 3.501 3.501h1.145a3.501 3.501 0 0 0 3.501-3.501v-2.249H55.08z"/><path class="st1" d="M63.228 30.003v2.249a3.501 3.501 0 0 0 3.501 3.501h1.145a3.501 3.501 0 0 0 3.501-3.501v-2.249h-8.147z"/><path class="st7" d="M71.376 30.003v2.249a3.501 3.501 0 0 0 3.501 3.501h1.145a3.501 3.501 0 0 0 3.501-3.501v-2.249h-8.147z"/><path class="st0" d="M55.755 40.46h-4.173a2.36 2.36 0 0 0-2.36 2.36v11.628h8.892V42.819a2.358 2.358 0 0 0-2.359-2.359z"/><g><path class="st7" d="M54.97 41.713h-2.603a1.78 1.78 0 0 0-1.78 1.78v10.955h6.162V43.493a1.779 1.779 0 0 0-1.779-1.78z"/></g><g><path class="st0" d="M72.094 40.917h-7.777a2.278 2.278 0 0 0-2.278 2.278v5.844a2.278 2.278 0 0 0 2.278 2.278h7.777a2.278 2.278 0 0 0 2.278-2.278v-5.844a2.278 2.278 0 0 0-2.278-2.278z"/></g><g><path class="st7" d="M71.418 42.009h-6.426c-1.011 0-1.831.82-1.831 1.831v4.554c0 1.011.82 1.831 1.831 1.831h6.426c1.011 0 1.831-.82 1.831-1.831V43.84c0-1.011-.82-1.831-1.831-1.831z"/></g><g><path class="st4" d="M71.432 42.009h-6.453c-.573 0-1.077.274-1.41.695l9.103 7.018c.354-.337.578-.812.578-1.343v-4.526c-.001-1.018-.814-1.844-1.818-1.844z"/></g><g><path class="st8" d="M73.344 3.145h-28.38a3.038 3.038 0 0 0-3.038 3.038v8.739a3.038 3.038 0 0 0 3.038 3.038h28.38a3.038 3.038 0 0 0 3.038-3.038v-8.74a3.038 3.038 0 0 0-3.038-3.037z"/></g><g><path class="st0" d="M71.658 5.049H46.65a2.438 2.438 0 0 0-2.438 2.438v6.129a2.438 2.438 0 0 0 2.438 2.438h25.009a2.438 2.438 0 0 0 2.438-2.438V7.487a2.439 2.439 0 0 0-2.439-2.438z"/></g><g><path class="st0" d="M67.72 41.644h1.035v8.96H67.72z"/></g><g><path class="st3" d="M69.503 8.178h-19.59c-.379 0-.69.31-.69.69 0 .38.31.69.69.69h19.59c.379 0 .69-.31.69-.69a.693.693 0 0 0-.69-.69z"/></g><g><path class="st3" d="M69.503 11.628h-19.59a.693.693 0 0 0-.69.69c0 .38.31.69.69.69h19.59c.379 0 .69-.31.69-.69a.693.693 0 0 0-.69-.69z"/></g><g><circle class="st0" cx="55.403" cy="47.909" r=".723"/></g></g></g></svg>