<svg xmlns="http://www.w3.org/2000/svg" viewBox="0 0 256 256" style="enable-background:new 0 0 256 256" xml:space="preserve"><style>.st6{fill:#c5e5ff}.st10{fill:#fc5d3d}.st13{fill:#afafaf}</style><g id="Layer_1"><path d="M251.333 45.953v191.115a5 5 0 0 1-5 5H9.667a5 5 0 0 1-5-5V45.953h246.666z" style="fill:#72c1e8"/><circle cx="128" cy="144.01" r="80.477" style="fill:#fff"/><path class="st13" d="M251.333 18.931v27.022H4.667V18.931a5 5 0 0 1 5-5h236.667a5 5 0 0 1 4.999 5z"/><circle class="st10" cx="23.756" cy="29.942" r="6.132"/><circle cx="47.402" cy="29.942" r="6.132" style="fill:#f0c020"/><circle cx="71.048" cy="29.942" r="6.132" style="fill:#13bf6d"/><path class="st6" d="M237 231h-49.5a2.5 2.5 0 1 1 0-5h47V55a2.5 2.5 0 1 1 5 0v173.5a2.5 2.5 0 0 1-2.5 2.5zm-59.5 0h-5.83a2.5 2.5 0 1 1 0-5h5.83a2.5 2.5 0 1 1 0 5zM87.164 231h-69.54a2.5 2.5 0 1 1 0-5h69.54a2.5 2.5 0 1 1 0 5z"/><path class="st13" d="M159.919 112.556v13.776h-11.516v-13.776c0-11.248-9.155-20.403-20.403-20.403s-20.403 9.155-20.403 20.403v13.776H96.081v-13.776c0-17.629 14.289-31.919 31.919-31.919s31.919 14.29 31.919 31.919z"/><path class="st10" d="M166.711 126.334H89.289a6.752 6.752 0 0 0-6.752 6.752v54.546a6.752 6.752 0 0 0 6.752 6.752h77.422a6.752 6.752 0 0 0 6.752-6.752v-54.546a6.752 6.752 0 0 0-6.752-6.752z"/><path d="M164.367 187.936h-1.659a2.5 2.5 0 1 1 0-5h1.659a2.5 2.5 0 1 1 0 5zm-11.659 0H90.929a2.5 2.5 0 0 1-2.5-2.5v-47.221a2.5 2.5 0 1 1 5 0v44.721h59.279a2.5 2.5 0 1 1 0 5z" style="fill:#ffcbc2"/><path d="M136.555 152.552a8.555 8.555 0 0 0-8.555-8.555 8.555 8.555 0 0 0-8.555 8.555 8.526 8.526 0 0 0 2.941 6.445v9.888a5.614 5.614 0 0 0 11.228 0v-9.888a8.526 8.526 0 0 0 2.941-6.445z" style="fill:#4c4945"/><circle cx="4.67" cy="130.559" r="2.5"/><path d="M246.333 11.431H9.667c-4.136 0-7.5 3.364-7.5 7.5 0 2.106.003 33.345.003 101.628a2.5 2.5 0 0 0 5 0v-72.11h241.66v188.619c0 1.37-1.12 2.49-2.5 2.5H9.67a2.514 2.514 0 0 1-2.5-2.5v-96.51c0-1.37-1.13-2.5-2.5-2.5-1.38 0-2.5 1.13-2.5 2.5v96.51c0 4.131 3.36 7.49 7.5 7.5h236.66c4.14-.01 7.5-3.369 7.5-7.5V45.982c0-.01.003-.019.003-.029V18.931c0-4.136-3.364-7.5-7.5-7.5zM7.167 43.45V18.931c0-1.379 1.121-2.5 2.5-2.5h236.666c1.379 0 2.5 1.121 2.5 2.5V43.45H7.167z"/><path d="M128 61.03c-45.904 0-82.98 37.243-82.98 82.979 0 45.74 37.06 82.98 82.98 82.98 45.776 0 82.97-37.089 82.97-82.98 0-7.12-.9-14.19-2.68-21.01-.34-1.311-1.73-2.13-3.05-1.79-1.332.353-2.125 1.689-1.79 3.05a77.966 77.966 0 0 1 2.529 19.75c-.02 43.12-34.871 77.958-77.979 77.98-43.193-.022-77.98-34.964-77.98-77.98 0-43.013 34.787-77.959 77.98-77.979 28.359 0 54.52 15.439 68.27 40.279.65 1.17 2.23 1.63 3.4.98a2.5 2.5 0 0 0 .979-3.4C186.023 77.453 158.268 61.03 128 61.03z"/><path d="M200.42 115.049s0 .01.01.01c.489 1.236 1.868 1.905 3.25 1.4a2.525 2.525 0 0 0 1.39-3.26 2.495 2.495 0 0 0-3.25-1.391 2.505 2.505 0 0 0-1.4 3.241zM23.75 21.309c-4.75 0-8.63 3.87-8.63 8.63 0 4.761 3.88 8.63 8.63 8.63 4.76 0 8.64-3.869 8.64-8.63 0-4.76-3.87-8.63-8.64-8.63zm0 12.26c-1.99 0-3.62-1.63-3.63-3.63.01-2 1.64-3.63 3.63-3.63 2 0 3.63 1.63 3.64 3.63-.01 2-1.64 3.63-3.64 3.63zM47.399 21.309c-4.76 0-8.63 3.87-8.63 8.63 0 4.761 3.88 8.63 8.63 8.63 4.761 0 8.631-3.869 8.631-8.63 0-4.76-3.87-8.63-8.631-8.63zm0 12.26c-2 0-3.63-1.63-3.63-3.63s1.63-3.63 3.63-3.63 3.631 1.63 3.641 3.63c-.01 2-1.641 3.63-3.641 3.63zM71.05 21.309c-4.76 0-8.63 3.87-8.63 8.63 0 4.761 3.87 8.63 8.63 8.63s8.63-3.869 8.63-8.63c0-4.76-3.87-8.63-8.63-8.63zm0 12.26c-2 0-3.63-1.63-3.64-3.63.01-2 1.64-3.63 3.64-3.63s3.63 1.63 3.63 3.63-1.63 3.63-3.63 3.63zM196.58 27.439h-100a2.5 2.5 0 0 0 0 5h100a2.5 2.5 0 0 0 0-5zM237 27.439h-20.42a2.5 2.5 0 0 0 0 5H237a2.5 2.5 0 0 0 0-5z"/><circle cx="206.58" cy="29.939" r="2.5"/><path d="M119.89 168.889c0 4.47 3.641 8.11 8.11 8.11s8.109-3.641 8.109-8.11v-8.84a11 11 0 0 0 2.95-7.5c-.01-6.09-4.97-11.05-11.06-11.05s-11.05 4.96-11.061 11.05c0 2.79 1.051 5.45 2.95 7.5v8.84zM128 146.5c3.33 0 6.05 2.72 6.06 6.05 0 1.77-.75 3.39-2.09 4.56-.54.48-.86 1.171-.86 1.891v9.89c0 1.71-1.399 3.11-3.109 3.11s-3.11-1.4-3.12-3.11V159c0-.73-.311-1.41-.85-1.891a5.952 5.952 0 0 1-2.091-4.56c.01-3.33 2.73-6.049 6.06-6.049z"/><path d="M128 78.137c-18.979 0-34.419 15.44-34.419 34.419v11.277h-4.292c-5.102 0-9.252 4.15-9.252 9.252v54.546c0 5.102 4.15 9.252 9.252 9.252h77.422c5.102 0 9.252-4.15 9.252-9.252v-54.546c0-5.102-4.15-9.252-9.252-9.252h-4.292v-11.277c0-18.978-15.44-34.419-34.419-34.419zm-29.419 34.419c0-16.222 13.197-29.419 29.419-29.419s29.419 13.197 29.419 29.419v11.276h-6.517v-11.276c0-12.629-10.274-22.903-22.902-22.903s-22.902 10.274-22.902 22.903v11.276h-6.517v-11.276zm11.517 0c0-9.872 8.031-17.903 17.902-17.903s17.902 8.031 17.902 17.903v11.277h-35.805v-11.277zm60.865 20.529v54.546a4.256 4.256 0 0 1-4.252 4.252H89.289a4.256 4.256 0 0 1-4.252-4.252v-54.546a4.256 4.256 0 0 1 4.252-4.252h77.422a4.257 4.257 0 0 1 4.252 4.252z"/></g></svg>